<svg id="Слой_1" data-name="Слой 1" xmlns="http://www.w3.org/2000/svg" viewBox="0 0 463.94 488.01"><defs><style>.cls-1{fill:none;stroke:#2e563c;stroke-miterlimit:10;stroke-width:32px;}</style></defs><polygon class="cls-1" points="16 132.01 49.96 132.01 447.94 132.01 447.94 16 359.5 16 359.5 44.01 289 44.01 289 16 177 16 177 44.01 107 44.01 107 16.01 16 16.01 16 132.01"/><polyline class="cls-1" points="56 132.01 56 472.01 409.39 472.01 409.39 132.01"/><line class="cls-1" x1="123" y1="207.01" x2="162.48" y2="207.01"/><line class="cls-1" x1="213" y1="207.01" x2="252.48" y2="207.01"/><line class="cls-1" x1="302" y1="207.01" x2="341.48" y2="207.01"/><path class="cls-1" d="M231.66,298h2.69A73.66,73.66,0,0,1,308,371.66V472a0,0,0,0,1,0,0H158a0,0,0,0,1,0,0V371.66A73.66,73.66,0,0,1,231.66,298Z"/></svg>