<svg width="691" height="283" viewBox="0 0 691 283" fill="none" xmlns="http://www.w3.org/2000/svg">
<path d="M82.203 91.784H78.939C78.363 86.6 76.411 81.992 73.083 77.96C69.371 73.48 65.019 71.24 60.027 71.24C58.171 71.24 56.443 71.528 54.843 72.104C53.307 72.68 51.643 73.608 49.851 74.888C46.267 77.576 43.803 81.672 42.459 87.176C41.499 91.08 41.019 96.04 41.019 102.056C41.019 107.816 41.307 112.488 41.883 116.072C42.779 121.704 44.411 126.056 46.779 129.128C49.723 132.968 53.787 134.888 58.971 134.888C63.899 134.888 68.347 132.488 72.315 127.688C75.387 123.976 77.851 119.272 79.707 113.576H82.395V132.776C79.195 134.504 74.875 135.944 69.435 137.096C63.995 138.248 59.163 138.824 54.939 138.824C44.187 138.824 35.547 135.592 29.019 129.128C22.555 122.6 19.323 113.928 19.323 103.112C19.323 92.36 22.747 83.784 29.595 77.384C36.507 70.92 45.403 67.688 56.283 67.688C60.315 67.688 64.699 68.264 69.435 69.416C73.211 70.312 77.467 71.656 82.203 73.448V91.784ZM84.825 134.216H91.737C92.825 132.232 94.009 129.672 95.289 126.536C96.377 123.976 97.433 121.32 98.457 118.568L117.465 68.36H122.361L147.417 134.312H154.905V137.096H115.929V134.312H125.817L119.097 115.784H103.065C101.081 120.712 99.897 123.72 99.513 124.808C98.169 128.392 97.209 131.528 96.633 134.216H105.849V136.904H84.825V134.216ZM118.329 113C117.497 110.056 116.441 106.728 115.161 103.016C114.329 100.712 113.113 97.448 111.513 93.224L103.929 113H118.329ZM163.044 113.864C164.196 119.816 166.564 124.744 170.148 128.648C174.18 133 179.076 135.176 184.836 135.176C188.42 135.176 191.364 134.44 193.668 132.968C196.356 131.24 197.7 128.68 197.7 125.288C197.7 121.576 194.532 118.184 188.196 115.112C177.06 109.736 171.204 106.856 170.628 106.472C164.228 102.056 161.028 96.392 161.028 89.48C161.028 82.568 163.236 77.16 167.652 73.256C172.068 69.288 177.796 67.304 184.836 67.304C188.292 67.304 191.652 67.72 194.916 68.552C198.244 69.32 201.38 70.504 204.324 72.104L205.38 87.944L202.212 88.04L201.924 86.6C200.58 82.184 198.372 78.536 195.3 75.656C191.844 72.456 187.94 70.856 183.588 70.856C180.772 70.856 178.34 71.432 176.292 72.584C173.732 74.056 172.452 76.136 172.452 78.824C172.452 82.6 175.652 85.992 182.052 89C193.572 94.376 199.556 97.224 200.004 97.544C206.468 101.896 209.7 107.592 209.7 114.632C209.7 121.928 207.3 127.752 202.5 132.104C197.7 136.456 191.588 138.632 184.164 138.632C179.3 138.632 175.332 138.248 172.26 137.48C169.252 136.776 165.38 135.336 160.644 133.16L159.876 113.864H163.044Z" fill="#FBFBFB"/>
<path d="M0.923003 183.32H67.835V206.36H64.667C64.667 200.6 62.843 195.864 59.195 192.152C55.547 188.44 50.811 186.584 44.987 186.584H44.027V248.12H52.379V250.904H15.899V248.216H24.443V185.912C17.275 186.936 12.315 188.76 9.563 191.384C6.811 194.008 4.827 198.872 3.611 205.976H0.923003V183.32ZM68.825 248.216H75.737C76.825 246.232 78.009 243.672 79.289 240.536C80.377 237.976 81.433 235.32 82.457 232.568L101.465 182.36H106.361L131.417 248.312H138.905V251.096H99.929V248.312H109.817L103.097 229.784H87.065C85.081 234.712 83.897 237.72 83.513 238.808C82.169 242.392 81.209 245.528 80.633 248.216H89.849V250.904H68.825V248.216ZM102.329 227C101.497 224.056 100.441 220.728 99.161 217.016C98.329 214.712 97.113 211.448 95.513 207.224L87.929 227H102.329ZM139.46 248.312H147.716V185.816H139.556V183.224H176.996C183.78 183.224 188.932 183.928 192.452 185.336C197.956 187.512 200.708 191.448 200.708 197.144C200.708 202.136 199.044 206.136 195.716 209.144C193.22 211.448 189.252 213.528 183.812 215.384C193.028 216.28 198.884 219.576 201.38 225.272C201.764 226.168 202.5 231.256 203.588 240.536C204.228 245.784 206.916 248.408 211.652 248.408V251.096H198.692C190.564 251.096 185.732 248.12 184.196 242.168C183.62 236.664 183.076 231.128 182.564 225.56C181.22 219.608 176.708 216.632 169.028 216.632L167.3 216.728V248.312H175.652V251H139.46V248.312ZM168.548 213.944C173.22 213.944 176.452 212.76 178.244 210.392C179.78 208.344 180.548 204.856 180.548 199.928C180.548 195 180.036 191.64 179.012 189.848C177.54 187.288 174.532 186.008 169.988 186.008H167.204V213.944H168.548Z" fill="#FBFBFB"/>
<path d="M219.889 67.7H401.109V130.1H392.529C392.529 114.5 387.589 101.673 377.709 91.62C367.829 81.5667 355.003 76.54 339.229 76.54H336.629V243.2H359.249V250.74H260.449V243.46H283.589V74.72C264.176 77.4933 250.743 82.4333 243.289 89.54C235.836 96.6467 230.463 109.82 227.169 129.06H219.889V67.7Z" fill="#FBFBFB"/>
<path d="M406.541 133.504H414.893V71.392H406.925V68.224H467.693V89.632H464.813C462.125 77.6 454.477 71.584 441.869 71.584H434.669V100.384C439.597 99.872 442.925 98.656 444.653 96.736C445.997 95.2 447.213 91.808 448.301 86.56H451.277V117.856H448.205C448.205 113.184 447.085 109.6 444.845 107.104C442.605 104.608 439.213 103.36 434.669 103.36V133.312H438.893C447.341 133.312 453.613 132.064 457.709 129.568C462.573 126.624 465.837 121.248 467.501 113.44H470.477V136.384H406.541V133.504ZM473.379 133.216H481.635V71.296H473.571V68.416H509.859V71.104H501.411V132.832H505.251C513.123 132.832 519.427 131.392 524.163 128.512C529.795 125.056 532.995 119.648 533.763 112.288H536.547V136.192H473.379V133.216ZM540.312 133.216H548.568V71.296H540.504V68.416H576.792V71.104H568.344V132.832H572.184C580.056 132.832 586.36 131.392 591.096 128.512C596.728 125.056 599.928 119.648 600.696 112.288H603.48V136.192H540.312V133.216ZM682.894 102.112C682.894 112.864 679.47 121.536 672.622 128.128C665.774 134.656 656.942 137.92 646.126 137.92C635.118 137.92 626.286 134.816 619.63 128.608C612.718 122.208 609.262 113.536 609.262 102.592C609.262 91.776 612.686 83.072 619.534 76.48C626.382 69.888 635.278 66.592 646.222 66.592C657.102 66.592 665.934 69.792 672.718 76.192C679.502 82.592 682.894 91.232 682.894 102.112ZM646.414 134.848C652.942 134.848 657.326 130.688 659.566 122.368C660.782 117.824 661.39 111.008 661.39 101.92C661.39 92.96 660.814 86.304 659.662 81.952C657.486 73.76 653.198 69.664 646.798 69.664C640.334 69.664 635.822 73.344 633.262 80.704C631.598 85.44 630.766 91.808 630.766 99.808V106.624C630.766 114.688 631.502 120.736 632.974 124.768C635.406 131.488 639.886 134.848 646.414 134.848Z" fill="#FBFBFB"/>
<path d="M405.403 182.224H441.403V184.912H433.339V229.456C433.339 235.024 434.363 239.28 436.411 242.224C438.907 245.808 442.811 247.6 448.123 247.6C453.179 247.6 457.243 246.384 460.315 243.952C463.771 241.264 465.499 237.456 465.499 232.528V184.912H457.915V182.416H477.499V184.912H469.243V224.944C469.243 234.352 467.547 241.104 464.155 245.2C460.443 249.68 453.979 251.92 444.763 251.92L442.939 251.824C431.227 251.824 423.291 249.968 419.131 246.256C415.483 243.056 413.659 238.224 413.659 231.76V184.816H405.403V182.224ZM479.116 247.312H487.564V185.2H479.596V182.416H538.252V203.728L535.18 203.824L534.988 202.384C533.26 195.216 529.932 190.448 525.004 188.08C521.42 186.352 515.532 185.488 507.34 185.488V214.48H508.492C512.332 214.48 515.34 213.104 517.516 210.352C519.436 207.856 520.588 204.592 520.972 200.56H523.852V231.76H520.876C520.364 226.704 519.244 223.152 517.516 221.104C515.468 218.672 512.076 217.456 507.34 217.456V247.408H515.404V250.384H479.116V247.312ZM615.88 216.112C615.88 226.864 612.456 235.536 605.608 242.128C598.76 248.656 589.928 251.92 579.112 251.92C568.104 251.92 559.272 248.816 552.616 242.608C545.704 236.208 542.248 227.536 542.248 216.592C542.248 205.776 545.672 197.072 552.52 190.48C559.368 183.888 568.264 180.592 579.208 180.592C590.088 180.592 598.92 183.792 605.704 190.192C612.488 196.592 615.88 205.232 615.88 216.112ZM579.4 248.848C585.928 248.848 590.312 244.688 592.552 236.368C593.768 231.824 594.376 225.008 594.376 215.92C594.376 206.96 593.8 200.304 592.648 195.952C590.472 187.76 586.184 183.664 579.784 183.664C573.32 183.664 568.808 187.344 566.248 194.704C564.584 199.44 563.752 205.808 563.752 213.808V220.624C563.752 228.688 564.488 234.736 565.96 238.768C568.392 245.488 572.872 248.848 579.4 248.848Z" fill="#FBFBFB"/>
</svg>
