<svg width="1920" height="353" viewBox="0 0 1920 353" fill="none" xmlns="http://www.w3.org/2000/svg">
<g opacity="0.45">
<rect x="-14.8787" y="43.8406" width="59" height="59" transform="rotate(-45 -14.8787 43.8406)" stroke="#172B1E" stroke-width="3"/>
<path d="M46.3406 44.8406C46.3406 56.1624 37.1624 65.3406 25.8406 65.3406C14.5187 65.3406 5.34058 56.1624 5.34058 44.8406C5.34058 33.5187 14.5187 24.3406 25.8406 24.3406C37.1624 24.3406 46.3406 33.5187 46.3406 44.8406Z" stroke="#172B1E" stroke-width="3"/>
<line x1="68.9012" y1="1.90124" x2="46.9012" y2="23.9012" stroke="#172B1E" stroke-width="3"/>
<line x1="6.90124" y1="63.9012" x2="-15.0988" y2="85.9012" stroke="#172B1E" stroke-width="3"/>
<line y1="-1.5" x2="31.1127" y2="-1.5" transform="matrix(0.707106 0.707107 0.707106 -0.707107 49.8406 64.8406)" stroke="#172B1E" stroke-width="3"/>
<line y1="-1.5" x2="31.1127" y2="-1.5" transform="matrix(0.707106 0.707107 0.707106 -0.707107 -14.1594 0.840576)" stroke="#172B1E" stroke-width="3"/>
<rect x="-16" y="1" width="86.8405" height="85.6813" stroke="#172B1E" stroke-width="2"/>
<rect x="73.9619" y="43.8406" width="59" height="59" transform="rotate(-45 73.9619 43.8406)" stroke="#172B1E" stroke-width="3"/>
<path d="M135.182 44.8403C135.182 56.1622 126.003 65.3404 114.682 65.3404C103.36 65.3404 94.1816 56.1622 94.1816 44.8403C94.1816 33.5185 103.36 24.3403 114.682 24.3403C126.003 24.3403 135.182 33.5185 135.182 44.8403Z" stroke="#172B1E" stroke-width="3"/>
<line x1="157.742" y1="1.90099" x2="135.742" y2="23.901" stroke="#172B1E" stroke-width="3"/>
<line x1="95.7423" y1="63.901" x2="73.7423" y2="85.901" stroke="#172B1E" stroke-width="3"/>
<line y1="-1.5" x2="31.1127" y2="-1.5" transform="matrix(0.707106 0.707107 0.707106 -0.707107 138.682 64.8403)" stroke="#172B1E" stroke-width="3"/>
<line y1="-1.5" x2="31.1127" y2="-1.5" transform="matrix(0.707106 0.707107 0.707106 -0.707107 74.6816 0.840332)" stroke="#172B1E" stroke-width="3"/>
<rect x="72.8406" y="1" width="86.8405" height="85.6813" stroke="#172B1E" stroke-width="2"/>
<rect x="162.802" y="43.8406" width="59" height="59" transform="rotate(-45 162.802 43.8406)" stroke="#172B1E" stroke-width="3"/>
<path d="M224.022 44.8406C224.022 56.1624 214.844 65.3406 203.522 65.3406C192.2 65.3406 183.022 56.1624 183.022 44.8406C183.022 33.5187 192.2 24.3406 203.522 24.3406C214.844 24.3406 224.022 33.5187 224.022 44.8406Z" stroke="#172B1E" stroke-width="3"/>
<line x1="246.582" y1="1.90124" x2="224.582" y2="23.9012" stroke="#172B1E" stroke-width="3"/>
<line x1="184.582" y1="63.9012" x2="162.582" y2="85.9012" stroke="#172B1E" stroke-width="3"/>
<line y1="-1.5" x2="31.1127" y2="-1.5" transform="matrix(0.707106 0.707107 0.707106 -0.707107 227.522 64.8406)" stroke="#172B1E" stroke-width="3"/>
<line y1="-1.5" x2="31.1127" y2="-1.5" transform="matrix(0.707106 0.707107 0.707106 -0.707107 163.522 0.840576)" stroke="#172B1E" stroke-width="3"/>
<rect x="161.681" y="1" width="86.8405" height="85.6813" stroke="#172B1E" stroke-width="2"/>
<rect x="251.643" y="43.8406" width="59" height="59" transform="rotate(-45 251.643 43.8406)" stroke="#172B1E" stroke-width="3"/>
<path d="M312.862 44.8406C312.862 56.1624 303.684 65.3406 292.362 65.3406C281.04 65.3406 271.862 56.1624 271.862 44.8406C271.862 33.5187 281.04 24.3406 292.362 24.3406C303.684 24.3406 312.862 33.5187 312.862 44.8406Z" stroke="#172B1E" stroke-width="3"/>
<line x1="335.423" y1="1.90124" x2="313.423" y2="23.9012" stroke="#172B1E" stroke-width="3"/>
<line x1="273.423" y1="63.9012" x2="251.423" y2="85.9012" stroke="#172B1E" stroke-width="3"/>
<line y1="-1.5" x2="31.1127" y2="-1.5" transform="matrix(0.707106 0.707107 0.707106 -0.707107 316.362 64.8406)" stroke="#172B1E" stroke-width="3"/>
<line y1="-1.5" x2="31.1127" y2="-1.5" transform="matrix(0.707106 0.707107 0.707106 -0.707107 252.362 0.840576)" stroke="#172B1E" stroke-width="3"/>
<rect x="250.522" y="1" width="86.8405" height="85.6813" stroke="#172B1E" stroke-width="2"/>
<rect x="340.483" y="43.8406" width="59" height="59" transform="rotate(-45 340.483 43.8406)" stroke="#172B1E" stroke-width="3"/>
<path d="M401.703 44.8406C401.703 56.1624 392.524 65.3406 381.203 65.3406C369.881 65.3406 360.703 56.1624 360.703 44.8406C360.703 33.5187 369.881 24.3406 381.203 24.3406C392.524 24.3406 401.703 33.5187 401.703 44.8406Z" stroke="#172B1E" stroke-width="3"/>
<line x1="424.263" y1="1.90124" x2="402.263" y2="23.9012" stroke="#172B1E" stroke-width="3"/>
<line x1="362.263" y1="63.9012" x2="340.263" y2="85.9012" stroke="#172B1E" stroke-width="3"/>
<line y1="-1.5" x2="31.1127" y2="-1.5" transform="matrix(0.707106 0.707107 0.707106 -0.707107 405.203 64.8406)" stroke="#172B1E" stroke-width="3"/>
<line y1="-1.5" x2="31.1127" y2="-1.5" transform="matrix(0.707106 0.707107 0.707106 -0.707107 341.203 0.840576)" stroke="#172B1E" stroke-width="3"/>
<rect x="339.362" y="1" width="86.8405" height="85.6813" stroke="#172B1E" stroke-width="2"/>
<rect x="429.324" y="43.8406" width="59" height="59" transform="rotate(-45 429.324 43.8406)" stroke="#172B1E" stroke-width="3"/>
<path d="M490.543 44.8406C490.543 56.1624 481.365 65.3406 470.043 65.3406C458.721 65.3406 449.543 56.1624 449.543 44.8406C449.543 33.5187 458.721 24.3406 470.043 24.3406C481.365 24.3406 490.543 33.5187 490.543 44.8406Z" stroke="#172B1E" stroke-width="3"/>
<line x1="513.104" y1="1.90124" x2="491.104" y2="23.9012" stroke="#172B1E" stroke-width="3"/>
<line x1="451.104" y1="63.9012" x2="429.104" y2="85.9012" stroke="#172B1E" stroke-width="3"/>
<line y1="-1.5" x2="31.1127" y2="-1.5" transform="matrix(0.707106 0.707107 0.707106 -0.707107 494.043 64.8406)" stroke="#172B1E" stroke-width="3"/>
<line y1="-1.5" x2="31.1127" y2="-1.5" transform="matrix(0.707106 0.707107 0.707106 -0.707107 430.043 0.840576)" stroke="#172B1E" stroke-width="3"/>
<rect x="428.203" y="1" width="86.8405" height="85.6813" stroke="#172B1E" stroke-width="2"/>
<rect x="518.165" y="43.8406" width="59" height="59" transform="rotate(-45 518.165 43.8406)" stroke="#172B1E" stroke-width="3"/>
<path d="M579.384 44.8406C579.384 56.1624 570.206 65.3406 558.884 65.3406C547.562 65.3406 538.384 56.1624 538.384 44.8406C538.384 33.5187 547.562 24.3406 558.884 24.3406C570.206 24.3406 579.384 33.5187 579.384 44.8406Z" stroke="#172B1E" stroke-width="3"/>
<line x1="601.944" y1="1.90124" x2="579.944" y2="23.9012" stroke="#172B1E" stroke-width="3"/>
<line x1="539.944" y1="63.9012" x2="517.944" y2="85.9012" stroke="#172B1E" stroke-width="3"/>
<line y1="-1.5" x2="31.1127" y2="-1.5" transform="matrix(0.707106 0.707107 0.707106 -0.707107 582.884 64.8406)" stroke="#172B1E" stroke-width="3"/>
<line y1="-1.5" x2="31.1127" y2="-1.5" transform="matrix(0.707106 0.707107 0.707106 -0.707107 518.884 0.840576)" stroke="#172B1E" stroke-width="3"/>
<rect x="517.043" y="1" width="86.8405" height="85.6813" stroke="#172B1E" stroke-width="2"/>
<rect x="607.005" y="43.8406" width="59" height="59" transform="rotate(-45 607.005 43.8406)" stroke="#172B1E" stroke-width="3"/>
<path d="M668.224 44.8406C668.224 56.1624 659.046 65.3406 647.724 65.3406C636.403 65.3406 627.224 56.1624 627.224 44.8406C627.224 33.5187 636.403 24.3406 647.724 24.3406C659.046 24.3406 668.224 33.5187 668.224 44.8406Z" stroke="#172B1E" stroke-width="3"/>
<line x1="690.785" y1="1.90124" x2="668.785" y2="23.9012" stroke="#172B1E" stroke-width="3"/>
<line x1="628.785" y1="63.9012" x2="606.785" y2="85.9012" stroke="#172B1E" stroke-width="3"/>
<line y1="-1.5" x2="31.1127" y2="-1.5" transform="matrix(0.707106 0.707107 0.707106 -0.707107 671.724 64.8406)" stroke="#172B1E" stroke-width="3"/>
<line y1="-1.5" x2="31.1127" y2="-1.5" transform="matrix(0.707106 0.707107 0.707106 -0.707107 607.724 0.840576)" stroke="#172B1E" stroke-width="3"/>
<rect x="605.884" y="1" width="86.8405" height="85.6813" stroke="#172B1E" stroke-width="2"/>
<rect x="695.845" y="43.8406" width="59" height="59" transform="rotate(-45 695.845 43.8406)" stroke="#172B1E" stroke-width="3"/>
<path d="M757.065 44.8406C757.065 56.1624 747.887 65.3406 736.565 65.3406C725.243 65.3406 716.065 56.1624 716.065 44.8406C716.065 33.5187 725.243 24.3406 736.565 24.3406C747.887 24.3406 757.065 33.5187 757.065 44.8406Z" stroke="#172B1E" stroke-width="3"/>
<line x1="779.625" y1="1.90124" x2="757.625" y2="23.9012" stroke="#172B1E" stroke-width="3"/>
<line x1="717.625" y1="63.9012" x2="695.625" y2="85.9012" stroke="#172B1E" stroke-width="3"/>
<line y1="-1.5" x2="31.1127" y2="-1.5" transform="matrix(0.707106 0.707107 0.707106 -0.707107 760.565 64.8406)" stroke="#172B1E" stroke-width="3"/>
<line y1="-1.5" x2="31.1127" y2="-1.5" transform="matrix(0.707106 0.707107 0.707106 -0.707107 696.565 0.840576)" stroke="#172B1E" stroke-width="3"/>
<rect x="694.724" y="1" width="86.8405" height="85.6813" stroke="#172B1E" stroke-width="2"/>
<rect x="784.686" y="43.8406" width="59" height="59" transform="rotate(-45 784.686 43.8406)" stroke="#172B1E" stroke-width="3"/>
<path d="M845.905 44.8406C845.905 56.1624 836.727 65.3406 825.405 65.3406C814.083 65.3406 804.905 56.1624 804.905 44.8406C804.905 33.5187 814.083 24.3406 825.405 24.3406C836.727 24.3406 845.905 33.5187 845.905 44.8406Z" stroke="#172B1E" stroke-width="3"/>
<line x1="868.466" y1="1.90124" x2="846.466" y2="23.9012" stroke="#172B1E" stroke-width="3"/>
<line x1="806.466" y1="63.9012" x2="784.466" y2="85.9012" stroke="#172B1E" stroke-width="3"/>
<line y1="-1.5" x2="31.1127" y2="-1.5" transform="matrix(0.707106 0.707107 0.707106 -0.707107 849.405 64.8406)" stroke="#172B1E" stroke-width="3"/>
<line y1="-1.5" x2="31.1127" y2="-1.5" transform="matrix(0.707106 0.707107 0.707106 -0.707107 785.405 0.840576)" stroke="#172B1E" stroke-width="3"/>
<rect x="783.565" y="1" width="86.8405" height="85.6813" stroke="#172B1E" stroke-width="2"/>
<rect x="873.527" y="43.8406" width="59" height="59" transform="rotate(-45 873.527 43.8406)" stroke="#172B1E" stroke-width="3"/>
<path d="M934.746 44.8406C934.746 56.1624 925.568 65.3406 914.246 65.3406C902.924 65.3406 893.746 56.1624 893.746 44.8406C893.746 33.5187 902.924 24.3406 914.246 24.3406C925.568 24.3406 934.746 33.5187 934.746 44.8406Z" stroke="#172B1E" stroke-width="3"/>
<line x1="957.307" y1="1.90124" x2="935.307" y2="23.9012" stroke="#172B1E" stroke-width="3"/>
<line x1="895.307" y1="63.9012" x2="873.307" y2="85.9012" stroke="#172B1E" stroke-width="3"/>
<line y1="-1.5" x2="31.1127" y2="-1.5" transform="matrix(0.707106 0.707107 0.707106 -0.707107 938.246 64.8406)" stroke="#172B1E" stroke-width="3"/>
<line y1="-1.5" x2="31.1127" y2="-1.5" transform="matrix(0.707106 0.707107 0.707106 -0.707107 874.246 0.840576)" stroke="#172B1E" stroke-width="3"/>
<rect x="872.405" y="1" width="86.8405" height="85.6813" stroke="#172B1E" stroke-width="2"/>
<rect x="962.367" y="43.8406" width="59" height="59" transform="rotate(-45 962.367 43.8406)" stroke="#172B1E" stroke-width="3"/>
<path d="M1023.59 44.8406C1023.59 56.1624 1014.41 65.3406 1003.09 65.3406C991.765 65.3406 982.586 56.1624 982.586 44.8406C982.586 33.5187 991.765 24.3406 1003.09 24.3406C1014.41 24.3406 1023.59 33.5187 1023.59 44.8406Z" stroke="#172B1E" stroke-width="3"/>
<line x1="1046.15" y1="1.90124" x2="1024.15" y2="23.9012" stroke="#172B1E" stroke-width="3"/>
<line x1="984.147" y1="63.9012" x2="962.147" y2="85.9012" stroke="#172B1E" stroke-width="3"/>
<line y1="-1.5" x2="31.1127" y2="-1.5" transform="matrix(0.707106 0.707107 0.707106 -0.707107 1027.09 64.8406)" stroke="#172B1E" stroke-width="3"/>
<line y1="-1.5" x2="31.1127" y2="-1.5" transform="matrix(0.707106 0.707107 0.707106 -0.707107 963.086 0.840576)" stroke="#172B1E" stroke-width="3"/>
<rect x="961.246" y="1" width="86.8405" height="85.6813" stroke="#172B1E" stroke-width="2"/>
<rect x="1051.21" y="43.8406" width="59" height="59" transform="rotate(-45 1051.21 43.8406)" stroke="#172B1E" stroke-width="3"/>
<path d="M1112.43 44.8406C1112.43 56.1624 1103.25 65.3406 1091.93 65.3406C1080.61 65.3406 1071.43 56.1624 1071.43 44.8406C1071.43 33.5187 1080.61 24.3406 1091.93 24.3406C1103.25 24.3406 1112.43 33.5187 1112.43 44.8406Z" stroke="#172B1E" stroke-width="3"/>
<line x1="1134.99" y1="1.90124" x2="1112.99" y2="23.9012" stroke="#172B1E" stroke-width="3"/>
<line x1="1072.99" y1="63.9012" x2="1050.99" y2="85.9012" stroke="#172B1E" stroke-width="3"/>
<line y1="-1.5" x2="31.1127" y2="-1.5" transform="matrix(0.707106 0.707107 0.707106 -0.707107 1115.93 64.8406)" stroke="#172B1E" stroke-width="3"/>
<line y1="-1.5" x2="31.1127" y2="-1.5" transform="matrix(0.707106 0.707107 0.707106 -0.707107 1051.93 0.840576)" stroke="#172B1E" stroke-width="3"/>
<rect x="1050.09" y="1" width="86.8405" height="85.6813" stroke="#172B1E" stroke-width="2"/>
<rect x="1140.05" y="43.8406" width="59" height="59" transform="rotate(-45 1140.05 43.8406)" stroke="#172B1E" stroke-width="3"/>
<path d="M1201.27 44.8406C1201.27 56.1624 1192.09 65.3406 1180.77 65.3406C1169.45 65.3406 1160.27 56.1624 1160.27 44.8406C1160.27 33.5187 1169.45 24.3406 1180.77 24.3406C1192.09 24.3406 1201.27 33.5187 1201.27 44.8406Z" stroke="#172B1E" stroke-width="3"/>
<line x1="1223.83" y1="1.90124" x2="1201.83" y2="23.9012" stroke="#172B1E" stroke-width="3"/>
<line x1="1161.83" y1="63.9012" x2="1139.83" y2="85.9012" stroke="#172B1E" stroke-width="3"/>
<line y1="-1.5" x2="31.1127" y2="-1.5" transform="matrix(0.707106 0.707107 0.707106 -0.707107 1204.77 64.8406)" stroke="#172B1E" stroke-width="3"/>
<line y1="-1.5" x2="31.1127" y2="-1.5" transform="matrix(0.707106 0.707107 0.707106 -0.707107 1140.77 0.840576)" stroke="#172B1E" stroke-width="3"/>
<rect x="1138.93" y="1" width="86.8405" height="85.6813" stroke="#172B1E" stroke-width="2"/>
<rect x="1228.89" y="43.8406" width="59" height="59" transform="rotate(-45 1228.89 43.8406)" stroke="#172B1E" stroke-width="3"/>
<path d="M1290.11 44.8406C1290.11 56.1624 1280.93 65.3406 1269.61 65.3406C1258.29 65.3406 1249.11 56.1624 1249.11 44.8406C1249.11 33.5187 1258.29 24.3406 1269.61 24.3406C1280.93 24.3406 1290.11 33.5187 1290.11 44.8406Z" stroke="#172B1E" stroke-width="3"/>
<line x1="1312.67" y1="1.90124" x2="1290.67" y2="23.9012" stroke="#172B1E" stroke-width="3"/>
<line x1="1250.67" y1="63.9012" x2="1228.67" y2="85.9012" stroke="#172B1E" stroke-width="3"/>
<line y1="-1.5" x2="31.1127" y2="-1.5" transform="matrix(0.707106 0.707107 0.707106 -0.707107 1293.61 64.8406)" stroke="#172B1E" stroke-width="3"/>
<line y1="-1.5" x2="31.1127" y2="-1.5" transform="matrix(0.707106 0.707107 0.707106 -0.707107 1229.61 0.840576)" stroke="#172B1E" stroke-width="3"/>
<rect x="1227.77" y="1" width="86.8405" height="85.6813" stroke="#172B1E" stroke-width="2"/>
<rect x="1317.73" y="43.8406" width="59" height="59" transform="rotate(-45 1317.73 43.8406)" stroke="#172B1E" stroke-width="3"/>
<path d="M1378.95 44.8406C1378.95 56.1624 1369.77 65.3406 1358.45 65.3406C1347.13 65.3406 1337.95 56.1624 1337.95 44.8406C1337.95 33.5187 1347.13 24.3406 1358.45 24.3406C1369.77 24.3406 1378.95 33.5187 1378.95 44.8406Z" stroke="#172B1E" stroke-width="3"/>
<line x1="1401.51" y1="1.90124" x2="1379.51" y2="23.9012" stroke="#172B1E" stroke-width="3"/>
<line x1="1339.51" y1="63.9012" x2="1317.51" y2="85.9012" stroke="#172B1E" stroke-width="3"/>
<line y1="-1.5" x2="31.1127" y2="-1.5" transform="matrix(0.707106 0.707107 0.707106 -0.707107 1382.45 64.8406)" stroke="#172B1E" stroke-width="3"/>
<line y1="-1.5" x2="31.1127" y2="-1.5" transform="matrix(0.707106 0.707107 0.707106 -0.707107 1318.45 0.840576)" stroke="#172B1E" stroke-width="3"/>
<rect x="1316.61" y="1" width="86.8405" height="85.6813" stroke="#172B1E" stroke-width="2"/>
<rect x="1406.57" y="43.8406" width="59" height="59" transform="rotate(-45 1406.57 43.8406)" stroke="#172B1E" stroke-width="3"/>
<path d="M1467.79 44.8406C1467.79 56.1624 1458.61 65.3406 1447.29 65.3406C1435.97 65.3406 1426.79 56.1624 1426.79 44.8406C1426.79 33.5187 1435.97 24.3406 1447.29 24.3406C1458.61 24.3406 1467.79 33.5187 1467.79 44.8406Z" stroke="#172B1E" stroke-width="3"/>
<line x1="1490.35" y1="1.90124" x2="1468.35" y2="23.9012" stroke="#172B1E" stroke-width="3"/>
<line x1="1428.35" y1="63.9012" x2="1406.35" y2="85.9012" stroke="#172B1E" stroke-width="3"/>
<line y1="-1.5" x2="31.1127" y2="-1.5" transform="matrix(0.707106 0.707107 0.707106 -0.707107 1471.29 64.8406)" stroke="#172B1E" stroke-width="3"/>
<line y1="-1.5" x2="31.1127" y2="-1.5" transform="matrix(0.707106 0.707107 0.707106 -0.707107 1407.29 0.840576)" stroke="#172B1E" stroke-width="3"/>
<rect x="1405.45" y="1" width="86.8405" height="85.6813" stroke="#172B1E" stroke-width="2"/>
<rect x="1495.41" y="43.8406" width="59" height="59" transform="rotate(-45 1495.41 43.8406)" stroke="#172B1E" stroke-width="3"/>
<path d="M1556.63 44.8406C1556.63 56.1624 1547.45 65.3406 1536.13 65.3406C1524.81 65.3406 1515.63 56.1624 1515.63 44.8406C1515.63 33.5187 1524.81 24.3406 1536.13 24.3406C1547.45 24.3406 1556.63 33.5187 1556.63 44.8406Z" stroke="#172B1E" stroke-width="3"/>
<line x1="1579.19" y1="1.90124" x2="1557.19" y2="23.9012" stroke="#172B1E" stroke-width="3"/>
<line x1="1517.19" y1="63.9012" x2="1495.19" y2="85.9012" stroke="#172B1E" stroke-width="3"/>
<line y1="-1.5" x2="31.1127" y2="-1.5" transform="matrix(0.707106 0.707107 0.707106 -0.707107 1560.13 64.8406)" stroke="#172B1E" stroke-width="3"/>
<line y1="-1.5" x2="31.1127" y2="-1.5" transform="matrix(0.707106 0.707107 0.707106 -0.707107 1496.13 0.840576)" stroke="#172B1E" stroke-width="3"/>
<rect x="1494.29" y="1" width="86.8405" height="85.6813" stroke="#172B1E" stroke-width="2"/>
<rect x="1584.25" y="43.8406" width="59" height="59" transform="rotate(-45 1584.25 43.8406)" stroke="#172B1E" stroke-width="3"/>
<path d="M1645.47 44.8406C1645.47 56.1624 1636.29 65.3406 1624.97 65.3406C1613.65 65.3406 1604.47 56.1624 1604.47 44.8406C1604.47 33.5187 1613.65 24.3406 1624.97 24.3406C1636.29 24.3406 1645.47 33.5187 1645.47 44.8406Z" stroke="#172B1E" stroke-width="3"/>
<line x1="1668.03" y1="1.90124" x2="1646.03" y2="23.9012" stroke="#172B1E" stroke-width="3"/>
<line x1="1606.03" y1="63.9012" x2="1584.03" y2="85.9012" stroke="#172B1E" stroke-width="3"/>
<line y1="-1.5" x2="31.1127" y2="-1.5" transform="matrix(0.707106 0.707107 0.707106 -0.707107 1648.97 64.8406)" stroke="#172B1E" stroke-width="3"/>
<line y1="-1.5" x2="31.1127" y2="-1.5" transform="matrix(0.707106 0.707107 0.707106 -0.707107 1584.97 0.840576)" stroke="#172B1E" stroke-width="3"/>
<rect x="1583.13" y="1" width="86.8405" height="85.6813" stroke="#172B1E" stroke-width="2"/>
<rect x="1673.09" y="43.8406" width="59" height="59" transform="rotate(-45 1673.09 43.8406)" stroke="#172B1E" stroke-width="3"/>
<path d="M1734.31 44.8406C1734.31 56.1624 1725.13 65.3406 1713.81 65.3406C1702.49 65.3406 1693.31 56.1624 1693.31 44.8406C1693.31 33.5187 1702.49 24.3406 1713.81 24.3406C1725.13 24.3406 1734.31 33.5187 1734.31 44.8406Z" stroke="#172B1E" stroke-width="3"/>
<line x1="1756.87" y1="1.90124" x2="1734.87" y2="23.9012" stroke="#172B1E" stroke-width="3"/>
<line x1="1694.87" y1="63.9012" x2="1672.87" y2="85.9012" stroke="#172B1E" stroke-width="3"/>
<line y1="-1.5" x2="31.1127" y2="-1.5" transform="matrix(0.707106 0.707107 0.707106 -0.707107 1737.81 64.8406)" stroke="#172B1E" stroke-width="3"/>
<line y1="-1.5" x2="31.1127" y2="-1.5" transform="matrix(0.707106 0.707107 0.707106 -0.707107 1673.81 0.840576)" stroke="#172B1E" stroke-width="3"/>
<rect x="1671.97" y="1" width="86.8405" height="85.6813" stroke="#172B1E" stroke-width="2"/>
<rect x="1761.93" y="43.8406" width="59" height="59" transform="rotate(-45 1761.93 43.8406)" stroke="#172B1E" stroke-width="3"/>
<path d="M1823.15 44.8406C1823.15 56.1624 1813.97 65.3406 1802.65 65.3406C1791.33 65.3406 1782.15 56.1624 1782.15 44.8406C1782.15 33.5187 1791.33 24.3406 1802.65 24.3406C1813.97 24.3406 1823.15 33.5187 1823.15 44.8406Z" stroke="#172B1E" stroke-width="3"/>
<line x1="1845.71" y1="1.90124" x2="1823.71" y2="23.9012" stroke="#172B1E" stroke-width="3"/>
<line x1="1783.71" y1="63.9012" x2="1761.71" y2="85.9012" stroke="#172B1E" stroke-width="3"/>
<line y1="-1.5" x2="31.1127" y2="-1.5" transform="matrix(0.707106 0.707107 0.707106 -0.707107 1826.65 64.8406)" stroke="#172B1E" stroke-width="3"/>
<line y1="-1.5" x2="31.1127" y2="-1.5" transform="matrix(0.707106 0.707107 0.707106 -0.707107 1762.65 0.840576)" stroke="#172B1E" stroke-width="3"/>
<rect x="1760.81" y="1" width="86.8405" height="85.6813" stroke="#172B1E" stroke-width="2"/>
<rect x="1850.77" y="43.8406" width="59" height="59" transform="rotate(-45 1850.77 43.8406)" stroke="#172B1E" stroke-width="3"/>
<path d="M1911.99 44.8406C1911.99 56.1624 1902.81 65.3406 1891.49 65.3406C1880.17 65.3406 1870.99 56.1624 1870.99 44.8406C1870.99 33.5187 1880.17 24.3406 1891.49 24.3406C1902.81 24.3406 1911.99 33.5187 1911.99 44.8406Z" stroke="#172B1E" stroke-width="3"/>
<line x1="1934.55" y1="1.90124" x2="1912.55" y2="23.9012" stroke="#172B1E" stroke-width="3"/>
<line x1="1872.55" y1="63.9012" x2="1850.55" y2="85.9012" stroke="#172B1E" stroke-width="3"/>
<line y1="-1.5" x2="31.1127" y2="-1.5" transform="matrix(0.707106 0.707107 0.707106 -0.707107 1915.49 64.8406)" stroke="#172B1E" stroke-width="3"/>
<line y1="-1.5" x2="31.1127" y2="-1.5" transform="matrix(0.707106 0.707107 0.707106 -0.707107 1851.49 0.840576)" stroke="#172B1E" stroke-width="3"/>
<rect x="1849.65" y="1" width="86.8405" height="85.6813" stroke="#172B1E" stroke-width="2"/>
<rect x="-14.8787" y="131.522" width="59" height="59" transform="rotate(-45 -14.8787 131.522)" stroke="#172B1E" stroke-width="3"/>
<path d="M46.3406 132.522C46.3406 143.844 37.1624 153.022 25.8406 153.022C14.5187 153.022 5.34058 143.844 5.34058 132.522C5.34058 121.2 14.5187 112.022 25.8406 112.022C37.1624 112.022 46.3406 121.2 46.3406 132.522Z" stroke="#172B1E" stroke-width="3"/>
<line x1="68.9012" y1="89.5824" x2="46.9012" y2="111.582" stroke="#172B1E" stroke-width="3"/>
<line x1="6.90124" y1="151.582" x2="-15.0988" y2="173.582" stroke="#172B1E" stroke-width="3"/>
<line y1="-1.5" x2="31.1127" y2="-1.5" transform="matrix(0.707106 0.707107 0.707106 -0.707107 49.8406 152.522)" stroke="#172B1E" stroke-width="3"/>
<line y1="-1.5" x2="31.1127" y2="-1.5" transform="matrix(0.707106 0.707107 0.707106 -0.707107 -14.1594 88.5217)" stroke="#172B1E" stroke-width="3"/>
<rect x="-16" y="88.6812" width="86.8405" height="85.6813" stroke="#172B1E" stroke-width="2"/>
<rect x="73.9619" y="131.522" width="59" height="59" transform="rotate(-45 73.9619 131.522)" stroke="#172B1E" stroke-width="3"/>
<path d="M135.182 132.521C135.182 143.843 126.003 153.022 114.682 153.022C103.36 153.022 94.1816 143.843 94.1816 132.521C94.1816 121.2 103.36 112.021 114.682 112.021C126.003 112.021 135.182 121.2 135.182 132.521Z" stroke="#172B1E" stroke-width="3"/>
<line x1="157.742" y1="89.5821" x2="135.742" y2="111.582" stroke="#172B1E" stroke-width="3"/>
<line x1="95.7423" y1="151.582" x2="73.7423" y2="173.582" stroke="#172B1E" stroke-width="3"/>
<line y1="-1.5" x2="31.1127" y2="-1.5" transform="matrix(0.707106 0.707107 0.707106 -0.707107 138.682 152.521)" stroke="#172B1E" stroke-width="3"/>
<line y1="-1.5" x2="31.1127" y2="-1.5" transform="matrix(0.707106 0.707107 0.707106 -0.707107 74.6816 88.5215)" stroke="#172B1E" stroke-width="3"/>
<rect x="72.8406" y="88.6812" width="86.8405" height="85.6813" stroke="#172B1E" stroke-width="2"/>
<rect x="162.802" y="131.522" width="59" height="59" transform="rotate(-45 162.802 131.522)" stroke="#172B1E" stroke-width="3"/>
<path d="M224.022 132.522C224.022 143.844 214.844 153.022 203.522 153.022C192.2 153.022 183.022 143.844 183.022 132.522C183.022 121.2 192.2 112.022 203.522 112.022C214.844 112.022 224.022 121.2 224.022 132.522Z" stroke="#172B1E" stroke-width="3"/>
<line x1="246.582" y1="89.5824" x2="224.582" y2="111.582" stroke="#172B1E" stroke-width="3"/>
<line x1="184.582" y1="151.582" x2="162.582" y2="173.582" stroke="#172B1E" stroke-width="3"/>
<line y1="-1.5" x2="31.1127" y2="-1.5" transform="matrix(0.707106 0.707107 0.707106 -0.707107 227.522 152.522)" stroke="#172B1E" stroke-width="3"/>
<line y1="-1.5" x2="31.1127" y2="-1.5" transform="matrix(0.707106 0.707107 0.707106 -0.707107 163.522 88.5217)" stroke="#172B1E" stroke-width="3"/>
<rect x="161.681" y="88.6812" width="86.8405" height="85.6813" stroke="#172B1E" stroke-width="2"/>
<rect x="251.643" y="131.522" width="59" height="59" transform="rotate(-45 251.643 131.522)" stroke="#172B1E" stroke-width="3"/>
<path d="M312.862 132.522C312.862 143.844 303.684 153.022 292.362 153.022C281.04 153.022 271.862 143.844 271.862 132.522C271.862 121.2 281.04 112.022 292.362 112.022C303.684 112.022 312.862 121.2 312.862 132.522Z" stroke="#172B1E" stroke-width="3"/>
<line x1="335.423" y1="89.5824" x2="313.423" y2="111.582" stroke="#172B1E" stroke-width="3"/>
<line x1="273.423" y1="151.582" x2="251.423" y2="173.582" stroke="#172B1E" stroke-width="3"/>
<line y1="-1.5" x2="31.1127" y2="-1.5" transform="matrix(0.707106 0.707107 0.707106 -0.707107 316.362 152.522)" stroke="#172B1E" stroke-width="3"/>
<line y1="-1.5" x2="31.1127" y2="-1.5" transform="matrix(0.707106 0.707107 0.707106 -0.707107 252.362 88.5217)" stroke="#172B1E" stroke-width="3"/>
<rect x="250.522" y="88.6812" width="86.8405" height="85.6813" stroke="#172B1E" stroke-width="2"/>
<rect x="340.483" y="131.522" width="59" height="59" transform="rotate(-45 340.483 131.522)" stroke="#172B1E" stroke-width="3"/>
<path d="M401.703 132.522C401.703 143.844 392.524 153.022 381.203 153.022C369.881 153.022 360.703 143.844 360.703 132.522C360.703 121.2 369.881 112.022 381.203 112.022C392.524 112.022 401.703 121.2 401.703 132.522Z" stroke="#172B1E" stroke-width="3"/>
<line x1="424.263" y1="89.5824" x2="402.263" y2="111.582" stroke="#172B1E" stroke-width="3"/>
<line x1="362.263" y1="151.582" x2="340.263" y2="173.582" stroke="#172B1E" stroke-width="3"/>
<line y1="-1.5" x2="31.1127" y2="-1.5" transform="matrix(0.707106 0.707107 0.707106 -0.707107 405.203 152.522)" stroke="#172B1E" stroke-width="3"/>
<line y1="-1.5" x2="31.1127" y2="-1.5" transform="matrix(0.707106 0.707107 0.707106 -0.707107 341.203 88.5217)" stroke="#172B1E" stroke-width="3"/>
<rect x="339.362" y="88.6812" width="86.8405" height="85.6813" stroke="#172B1E" stroke-width="2"/>
<rect x="429.324" y="131.522" width="59" height="59" transform="rotate(-45 429.324 131.522)" stroke="#172B1E" stroke-width="3"/>
<path d="M490.543 132.522C490.543 143.844 481.365 153.022 470.043 153.022C458.721 153.022 449.543 143.844 449.543 132.522C449.543 121.2 458.721 112.022 470.043 112.022C481.365 112.022 490.543 121.2 490.543 132.522Z" stroke="#172B1E" stroke-width="3"/>
<line x1="513.104" y1="89.5824" x2="491.104" y2="111.582" stroke="#172B1E" stroke-width="3"/>
<line x1="451.104" y1="151.582" x2="429.104" y2="173.582" stroke="#172B1E" stroke-width="3"/>
<line y1="-1.5" x2="31.1127" y2="-1.5" transform="matrix(0.707106 0.707107 0.707106 -0.707107 494.043 152.522)" stroke="#172B1E" stroke-width="3"/>
<line y1="-1.5" x2="31.1127" y2="-1.5" transform="matrix(0.707106 0.707107 0.707106 -0.707107 430.043 88.5217)" stroke="#172B1E" stroke-width="3"/>
<rect x="428.203" y="88.6812" width="86.8405" height="85.6813" stroke="#172B1E" stroke-width="2"/>
<rect x="518.165" y="131.522" width="59" height="59" transform="rotate(-45 518.165 131.522)" stroke="#172B1E" stroke-width="3"/>
<path d="M579.384 132.522C579.384 143.844 570.206 153.022 558.884 153.022C547.562 153.022 538.384 143.844 538.384 132.522C538.384 121.2 547.562 112.022 558.884 112.022C570.206 112.022 579.384 121.2 579.384 132.522Z" stroke="#172B1E" stroke-width="3"/>
<line x1="601.944" y1="89.5824" x2="579.944" y2="111.582" stroke="#172B1E" stroke-width="3"/>
<line x1="539.944" y1="151.582" x2="517.944" y2="173.582" stroke="#172B1E" stroke-width="3"/>
<line y1="-1.5" x2="31.1127" y2="-1.5" transform="matrix(0.707106 0.707107 0.707106 -0.707107 582.884 152.522)" stroke="#172B1E" stroke-width="3"/>
<line y1="-1.5" x2="31.1127" y2="-1.5" transform="matrix(0.707106 0.707107 0.707106 -0.707107 518.884 88.5217)" stroke="#172B1E" stroke-width="3"/>
<rect x="517.043" y="88.6812" width="86.8405" height="85.6813" stroke="#172B1E" stroke-width="2"/>
<rect x="607.005" y="131.522" width="59" height="59" transform="rotate(-45 607.005 131.522)" stroke="#172B1E" stroke-width="3"/>
<path d="M668.224 132.522C668.224 143.844 659.046 153.022 647.724 153.022C636.403 153.022 627.224 143.844 627.224 132.522C627.224 121.2 636.403 112.022 647.724 112.022C659.046 112.022 668.224 121.2 668.224 132.522Z" stroke="#172B1E" stroke-width="3"/>
<line x1="690.785" y1="89.5824" x2="668.785" y2="111.582" stroke="#172B1E" stroke-width="3"/>
<line x1="628.785" y1="151.582" x2="606.785" y2="173.582" stroke="#172B1E" stroke-width="3"/>
<line y1="-1.5" x2="31.1127" y2="-1.5" transform="matrix(0.707106 0.707107 0.707106 -0.707107 671.724 152.522)" stroke="#172B1E" stroke-width="3"/>
<line y1="-1.5" x2="31.1127" y2="-1.5" transform="matrix(0.707106 0.707107 0.707106 -0.707107 607.724 88.5217)" stroke="#172B1E" stroke-width="3"/>
<rect x="605.884" y="88.6812" width="86.8405" height="85.6813" stroke="#172B1E" stroke-width="2"/>
<rect x="695.845" y="131.522" width="59" height="59" transform="rotate(-45 695.845 131.522)" stroke="#172B1E" stroke-width="3"/>
<path d="M757.065 132.522C757.065 143.844 747.887 153.022 736.565 153.022C725.243 153.022 716.065 143.844 716.065 132.522C716.065 121.2 725.243 112.022 736.565 112.022C747.887 112.022 757.065 121.2 757.065 132.522Z" stroke="#172B1E" stroke-width="3"/>
<line x1="779.625" y1="89.5824" x2="757.625" y2="111.582" stroke="#172B1E" stroke-width="3"/>
<line x1="717.625" y1="151.582" x2="695.625" y2="173.582" stroke="#172B1E" stroke-width="3"/>
<line y1="-1.5" x2="31.1127" y2="-1.5" transform="matrix(0.707106 0.707107 0.707106 -0.707107 760.565 152.522)" stroke="#172B1E" stroke-width="3"/>
<line y1="-1.5" x2="31.1127" y2="-1.5" transform="matrix(0.707106 0.707107 0.707106 -0.707107 696.565 88.5217)" stroke="#172B1E" stroke-width="3"/>
<rect x="694.724" y="88.6812" width="86.8405" height="85.6813" stroke="#172B1E" stroke-width="2"/>
<rect x="784.686" y="131.522" width="59" height="59" transform="rotate(-45 784.686 131.522)" stroke="#172B1E" stroke-width="3"/>
<path d="M845.905 132.522C845.905 143.844 836.727 153.022 825.405 153.022C814.083 153.022 804.905 143.844 804.905 132.522C804.905 121.2 814.083 112.022 825.405 112.022C836.727 112.022 845.905 121.2 845.905 132.522Z" stroke="#172B1E" stroke-width="3"/>
<line x1="868.466" y1="89.5824" x2="846.466" y2="111.582" stroke="#172B1E" stroke-width="3"/>
<line x1="806.466" y1="151.582" x2="784.466" y2="173.582" stroke="#172B1E" stroke-width="3"/>
<line y1="-1.5" x2="31.1127" y2="-1.5" transform="matrix(0.707106 0.707107 0.707106 -0.707107 849.405 152.522)" stroke="#172B1E" stroke-width="3"/>
<line y1="-1.5" x2="31.1127" y2="-1.5" transform="matrix(0.707106 0.707107 0.707106 -0.707107 785.405 88.5217)" stroke="#172B1E" stroke-width="3"/>
<rect x="783.565" y="88.6812" width="86.8405" height="85.6813" stroke="#172B1E" stroke-width="2"/>
<rect x="873.527" y="131.522" width="59" height="59" transform="rotate(-45 873.527 131.522)" stroke="#172B1E" stroke-width="3"/>
<path d="M934.746 132.522C934.746 143.844 925.568 153.022 914.246 153.022C902.924 153.022 893.746 143.844 893.746 132.522C893.746 121.2 902.924 112.022 914.246 112.022C925.568 112.022 934.746 121.2 934.746 132.522Z" stroke="#172B1E" stroke-width="3"/>
<line x1="957.307" y1="89.5824" x2="935.307" y2="111.582" stroke="#172B1E" stroke-width="3"/>
<line x1="895.307" y1="151.582" x2="873.307" y2="173.582" stroke="#172B1E" stroke-width="3"/>
<line y1="-1.5" x2="31.1127" y2="-1.5" transform="matrix(0.707106 0.707107 0.707106 -0.707107 938.246 152.522)" stroke="#172B1E" stroke-width="3"/>
<line y1="-1.5" x2="31.1127" y2="-1.5" transform="matrix(0.707106 0.707107 0.707106 -0.707107 874.246 88.5217)" stroke="#172B1E" stroke-width="3"/>
<rect x="872.405" y="88.6812" width="86.8405" height="85.6813" stroke="#172B1E" stroke-width="2"/>
<rect x="962.367" y="131.522" width="59" height="59" transform="rotate(-45 962.367 131.522)" stroke="#172B1E" stroke-width="3"/>
<path d="M1023.59 132.522C1023.59 143.844 1014.41 153.022 1003.09 153.022C991.765 153.022 982.586 143.844 982.586 132.522C982.586 121.2 991.765 112.022 1003.09 112.022C1014.41 112.022 1023.59 121.2 1023.59 132.522Z" stroke="#172B1E" stroke-width="3"/>
<line x1="1046.15" y1="89.5824" x2="1024.15" y2="111.582" stroke="#172B1E" stroke-width="3"/>
<line x1="984.147" y1="151.582" x2="962.147" y2="173.582" stroke="#172B1E" stroke-width="3"/>
<line y1="-1.5" x2="31.1127" y2="-1.5" transform="matrix(0.707106 0.707107 0.707106 -0.707107 1027.09 152.522)" stroke="#172B1E" stroke-width="3"/>
<line y1="-1.5" x2="31.1127" y2="-1.5" transform="matrix(0.707106 0.707107 0.707106 -0.707107 963.086 88.5217)" stroke="#172B1E" stroke-width="3"/>
<rect x="961.246" y="88.6812" width="86.8405" height="85.6813" stroke="#172B1E" stroke-width="2"/>
<rect x="1051.21" y="131.522" width="59" height="59" transform="rotate(-45 1051.21 131.522)" stroke="#172B1E" stroke-width="3"/>
<path d="M1112.43 132.522C1112.43 143.844 1103.25 153.022 1091.93 153.022C1080.61 153.022 1071.43 143.844 1071.43 132.522C1071.43 121.2 1080.61 112.022 1091.93 112.022C1103.25 112.022 1112.43 121.2 1112.43 132.522Z" stroke="#172B1E" stroke-width="3"/>
<line x1="1134.99" y1="89.5824" x2="1112.99" y2="111.582" stroke="#172B1E" stroke-width="3"/>
<line x1="1072.99" y1="151.582" x2="1050.99" y2="173.582" stroke="#172B1E" stroke-width="3"/>
<line y1="-1.5" x2="31.1127" y2="-1.5" transform="matrix(0.707106 0.707107 0.707106 -0.707107 1115.93 152.522)" stroke="#172B1E" stroke-width="3"/>
<line y1="-1.5" x2="31.1127" y2="-1.5" transform="matrix(0.707106 0.707107 0.707106 -0.707107 1051.93 88.5217)" stroke="#172B1E" stroke-width="3"/>
<rect x="1050.09" y="88.6812" width="86.8405" height="85.6813" stroke="#172B1E" stroke-width="2"/>
<rect x="1140.05" y="131.522" width="59" height="59" transform="rotate(-45 1140.05 131.522)" stroke="#172B1E" stroke-width="3"/>
<path d="M1201.27 132.522C1201.27 143.844 1192.09 153.022 1180.77 153.022C1169.45 153.022 1160.27 143.844 1160.27 132.522C1160.27 121.2 1169.45 112.022 1180.77 112.022C1192.09 112.022 1201.27 121.2 1201.27 132.522Z" stroke="#172B1E" stroke-width="3"/>
<line x1="1223.83" y1="89.5824" x2="1201.83" y2="111.582" stroke="#172B1E" stroke-width="3"/>
<line x1="1161.83" y1="151.582" x2="1139.83" y2="173.582" stroke="#172B1E" stroke-width="3"/>
<line y1="-1.5" x2="31.1127" y2="-1.5" transform="matrix(0.707106 0.707107 0.707106 -0.707107 1204.77 152.522)" stroke="#172B1E" stroke-width="3"/>
<line y1="-1.5" x2="31.1127" y2="-1.5" transform="matrix(0.707106 0.707107 0.707106 -0.707107 1140.77 88.5217)" stroke="#172B1E" stroke-width="3"/>
<rect x="1138.93" y="88.6812" width="86.8405" height="85.6813" stroke="#172B1E" stroke-width="2"/>
<rect x="1228.89" y="131.522" width="59" height="59" transform="rotate(-45 1228.89 131.522)" stroke="#172B1E" stroke-width="3"/>
<path d="M1290.11 132.522C1290.11 143.844 1280.93 153.022 1269.61 153.022C1258.29 153.022 1249.11 143.844 1249.11 132.522C1249.11 121.2 1258.29 112.022 1269.61 112.022C1280.93 112.022 1290.11 121.2 1290.11 132.522Z" stroke="#172B1E" stroke-width="3"/>
<line x1="1312.67" y1="89.5824" x2="1290.67" y2="111.582" stroke="#172B1E" stroke-width="3"/>
<line x1="1250.67" y1="151.582" x2="1228.67" y2="173.582" stroke="#172B1E" stroke-width="3"/>
<line y1="-1.5" x2="31.1127" y2="-1.5" transform="matrix(0.707106 0.707107 0.707106 -0.707107 1293.61 152.522)" stroke="#172B1E" stroke-width="3"/>
<line y1="-1.5" x2="31.1127" y2="-1.5" transform="matrix(0.707106 0.707107 0.707106 -0.707107 1229.61 88.5217)" stroke="#172B1E" stroke-width="3"/>
<rect x="1227.77" y="88.6812" width="86.8405" height="85.6813" stroke="#172B1E" stroke-width="2"/>
<rect x="1317.73" y="131.522" width="59" height="59" transform="rotate(-45 1317.73 131.522)" stroke="#172B1E" stroke-width="3"/>
<path d="M1378.95 132.522C1378.95 143.844 1369.77 153.022 1358.45 153.022C1347.13 153.022 1337.95 143.844 1337.95 132.522C1337.95 121.2 1347.13 112.022 1358.45 112.022C1369.77 112.022 1378.95 121.2 1378.95 132.522Z" stroke="#172B1E" stroke-width="3"/>
<line x1="1401.51" y1="89.5824" x2="1379.51" y2="111.582" stroke="#172B1E" stroke-width="3"/>
<line x1="1339.51" y1="151.582" x2="1317.51" y2="173.582" stroke="#172B1E" stroke-width="3"/>
<line y1="-1.5" x2="31.1127" y2="-1.5" transform="matrix(0.707106 0.707107 0.707106 -0.707107 1382.45 152.522)" stroke="#172B1E" stroke-width="3"/>
<line y1="-1.5" x2="31.1127" y2="-1.5" transform="matrix(0.707106 0.707107 0.707106 -0.707107 1318.45 88.5217)" stroke="#172B1E" stroke-width="3"/>
<rect x="1316.61" y="88.6812" width="86.8405" height="85.6813" stroke="#172B1E" stroke-width="2"/>
<rect x="1406.57" y="131.522" width="59" height="59" transform="rotate(-45 1406.57 131.522)" stroke="#172B1E" stroke-width="3"/>
<path d="M1467.79 132.522C1467.79 143.844 1458.61 153.022 1447.29 153.022C1435.97 153.022 1426.79 143.844 1426.79 132.522C1426.79 121.2 1435.97 112.022 1447.29 112.022C1458.61 112.022 1467.79 121.2 1467.79 132.522Z" stroke="#172B1E" stroke-width="3"/>
<line x1="1490.35" y1="89.5824" x2="1468.35" y2="111.582" stroke="#172B1E" stroke-width="3"/>
<line x1="1428.35" y1="151.582" x2="1406.35" y2="173.582" stroke="#172B1E" stroke-width="3"/>
<line y1="-1.5" x2="31.1127" y2="-1.5" transform="matrix(0.707106 0.707107 0.707106 -0.707107 1471.29 152.522)" stroke="#172B1E" stroke-width="3"/>
<line y1="-1.5" x2="31.1127" y2="-1.5" transform="matrix(0.707106 0.707107 0.707106 -0.707107 1407.29 88.5217)" stroke="#172B1E" stroke-width="3"/>
<rect x="1405.45" y="88.6812" width="86.8405" height="85.6813" stroke="#172B1E" stroke-width="2"/>
<rect x="1495.41" y="131.522" width="59" height="59" transform="rotate(-45 1495.41 131.522)" stroke="#172B1E" stroke-width="3"/>
<path d="M1556.63 132.522C1556.63 143.844 1547.45 153.022 1536.13 153.022C1524.81 153.022 1515.63 143.844 1515.63 132.522C1515.63 121.2 1524.81 112.022 1536.13 112.022C1547.45 112.022 1556.63 121.2 1556.63 132.522Z" stroke="#172B1E" stroke-width="3"/>
<line x1="1579.19" y1="89.5824" x2="1557.19" y2="111.582" stroke="#172B1E" stroke-width="3"/>
<line x1="1517.19" y1="151.582" x2="1495.19" y2="173.582" stroke="#172B1E" stroke-width="3"/>
<line y1="-1.5" x2="31.1127" y2="-1.5" transform="matrix(0.707106 0.707107 0.707106 -0.707107 1560.13 152.522)" stroke="#172B1E" stroke-width="3"/>
<line y1="-1.5" x2="31.1127" y2="-1.5" transform="matrix(0.707106 0.707107 0.707106 -0.707107 1496.13 88.5217)" stroke="#172B1E" stroke-width="3"/>
<rect x="1494.29" y="88.6812" width="86.8405" height="85.6813" stroke="#172B1E" stroke-width="2"/>
<rect x="1584.25" y="131.522" width="59" height="59" transform="rotate(-45 1584.25 131.522)" stroke="#172B1E" stroke-width="3"/>
<path d="M1645.47 132.522C1645.47 143.844 1636.29 153.022 1624.97 153.022C1613.65 153.022 1604.47 143.844 1604.47 132.522C1604.47 121.2 1613.65 112.022 1624.97 112.022C1636.29 112.022 1645.47 121.2 1645.47 132.522Z" stroke="#172B1E" stroke-width="3"/>
<line x1="1668.03" y1="89.5824" x2="1646.03" y2="111.582" stroke="#172B1E" stroke-width="3"/>
<line x1="1606.03" y1="151.582" x2="1584.03" y2="173.582" stroke="#172B1E" stroke-width="3"/>
<line y1="-1.5" x2="31.1127" y2="-1.5" transform="matrix(0.707106 0.707107 0.707106 -0.707107 1648.97 152.522)" stroke="#172B1E" stroke-width="3"/>
<line y1="-1.5" x2="31.1127" y2="-1.5" transform="matrix(0.707106 0.707107 0.707106 -0.707107 1584.97 88.5217)" stroke="#172B1E" stroke-width="3"/>
<rect x="1583.13" y="88.6812" width="86.8405" height="85.6813" stroke="#172B1E" stroke-width="2"/>
<rect x="1673.09" y="131.522" width="59" height="59" transform="rotate(-45 1673.09 131.522)" stroke="#172B1E" stroke-width="3"/>
<path d="M1734.31 132.522C1734.31 143.844 1725.13 153.022 1713.81 153.022C1702.49 153.022 1693.31 143.844 1693.31 132.522C1693.31 121.2 1702.49 112.022 1713.81 112.022C1725.13 112.022 1734.31 121.2 1734.31 132.522Z" stroke="#172B1E" stroke-width="3"/>
<line x1="1756.87" y1="89.5824" x2="1734.87" y2="111.582" stroke="#172B1E" stroke-width="3"/>
<line x1="1694.87" y1="151.582" x2="1672.87" y2="173.582" stroke="#172B1E" stroke-width="3"/>
<line y1="-1.5" x2="31.1127" y2="-1.5" transform="matrix(0.707106 0.707107 0.707106 -0.707107 1737.81 152.522)" stroke="#172B1E" stroke-width="3"/>
<line y1="-1.5" x2="31.1127" y2="-1.5" transform="matrix(0.707106 0.707107 0.707106 -0.707107 1673.81 88.5217)" stroke="#172B1E" stroke-width="3"/>
<rect x="1671.97" y="88.6812" width="86.8405" height="85.6813" stroke="#172B1E" stroke-width="2"/>
<rect x="1761.93" y="131.522" width="59" height="59" transform="rotate(-45 1761.93 131.522)" stroke="#172B1E" stroke-width="3"/>
<path d="M1823.15 132.522C1823.15 143.844 1813.97 153.022 1802.65 153.022C1791.33 153.022 1782.15 143.844 1782.15 132.522C1782.15 121.2 1791.33 112.022 1802.65 112.022C1813.97 112.022 1823.15 121.2 1823.15 132.522Z" stroke="#172B1E" stroke-width="3"/>
<line x1="1845.71" y1="89.5824" x2="1823.71" y2="111.582" stroke="#172B1E" stroke-width="3"/>
<line x1="1783.71" y1="151.582" x2="1761.71" y2="173.582" stroke="#172B1E" stroke-width="3"/>
<line y1="-1.5" x2="31.1127" y2="-1.5" transform="matrix(0.707106 0.707107 0.707106 -0.707107 1826.65 152.522)" stroke="#172B1E" stroke-width="3"/>
<line y1="-1.5" x2="31.1127" y2="-1.5" transform="matrix(0.707106 0.707107 0.707106 -0.707107 1762.65 88.5217)" stroke="#172B1E" stroke-width="3"/>
<rect x="1760.81" y="88.6812" width="86.8405" height="85.6813" stroke="#172B1E" stroke-width="2"/>
<rect x="1850.77" y="131.522" width="59" height="59" transform="rotate(-45 1850.77 131.522)" stroke="#172B1E" stroke-width="3"/>
<path d="M1911.99 132.522C1911.99 143.844 1902.81 153.022 1891.49 153.022C1880.17 153.022 1870.99 143.844 1870.99 132.522C1870.99 121.2 1880.17 112.022 1891.49 112.022C1902.81 112.022 1911.99 121.2 1911.99 132.522Z" stroke="#172B1E" stroke-width="3"/>
<line x1="1934.55" y1="89.5824" x2="1912.55" y2="111.582" stroke="#172B1E" stroke-width="3"/>
<line x1="1872.55" y1="151.582" x2="1850.55" y2="173.582" stroke="#172B1E" stroke-width="3"/>
<line y1="-1.5" x2="31.1127" y2="-1.5" transform="matrix(0.707106 0.707107 0.707106 -0.707107 1915.49 152.522)" stroke="#172B1E" stroke-width="3"/>
<line y1="-1.5" x2="31.1127" y2="-1.5" transform="matrix(0.707106 0.707107 0.707106 -0.707107 1851.49 88.5217)" stroke="#172B1E" stroke-width="3"/>
<rect x="1849.65" y="88.6812" width="86.8405" height="85.6813" stroke="#172B1E" stroke-width="2"/>
<rect x="-14.8787" y="219.203" width="59" height="59" transform="rotate(-45 -14.8787 219.203)" stroke="#172B1E" stroke-width="3"/>
<path d="M46.3406 220.203C46.3406 231.525 37.1624 240.703 25.8406 240.703C14.5187 240.703 5.34058 231.525 5.34058 220.203C5.34058 208.881 14.5187 199.703 25.8406 199.703C37.1624 199.703 46.3406 208.881 46.3406 220.203Z" stroke="#172B1E" stroke-width="3"/>
<line x1="68.9012" y1="177.264" x2="46.9012" y2="199.264" stroke="#172B1E" stroke-width="3"/>
<line x1="6.90124" y1="239.264" x2="-15.0988" y2="261.264" stroke="#172B1E" stroke-width="3"/>
<line y1="-1.5" x2="31.1127" y2="-1.5" transform="matrix(0.707106 0.707107 0.707106 -0.707107 49.8406 240.203)" stroke="#172B1E" stroke-width="3"/>
<line y1="-1.5" x2="31.1127" y2="-1.5" transform="matrix(0.707106 0.707107 0.707106 -0.707107 -14.1594 176.203)" stroke="#172B1E" stroke-width="3"/>
<rect x="-16" y="176.363" width="86.8405" height="85.6813" stroke="#172B1E" stroke-width="2"/>
<rect x="73.9619" y="219.203" width="59" height="59" transform="rotate(-45 73.9619 219.203)" stroke="#172B1E" stroke-width="3"/>
<path d="M135.182 220.203C135.182 231.525 126.003 240.703 114.682 240.703C103.36 240.703 94.1816 231.525 94.1816 220.203C94.1816 208.881 103.36 199.703 114.682 199.703C126.003 199.703 135.182 208.881 135.182 220.203Z" stroke="#172B1E" stroke-width="3"/>
<line x1="157.742" y1="177.264" x2="135.742" y2="199.264" stroke="#172B1E" stroke-width="3"/>
<line x1="95.7423" y1="239.264" x2="73.7423" y2="261.264" stroke="#172B1E" stroke-width="3"/>
<line y1="-1.5" x2="31.1127" y2="-1.5" transform="matrix(0.707106 0.707107 0.707106 -0.707107 138.682 240.203)" stroke="#172B1E" stroke-width="3"/>
<line y1="-1.5" x2="31.1127" y2="-1.5" transform="matrix(0.707106 0.707107 0.707106 -0.707107 74.6816 176.203)" stroke="#172B1E" stroke-width="3"/>
<rect x="72.8406" y="176.363" width="86.8405" height="85.6813" stroke="#172B1E" stroke-width="2"/>
<rect x="162.802" y="219.203" width="59" height="59" transform="rotate(-45 162.802 219.203)" stroke="#172B1E" stroke-width="3"/>
<path d="M224.022 220.203C224.022 231.525 214.844 240.703 203.522 240.703C192.2 240.703 183.022 231.525 183.022 220.203C183.022 208.881 192.2 199.703 203.522 199.703C214.844 199.703 224.022 208.881 224.022 220.203Z" stroke="#172B1E" stroke-width="3"/>
<line x1="246.582" y1="177.264" x2="224.582" y2="199.264" stroke="#172B1E" stroke-width="3"/>
<line x1="184.582" y1="239.264" x2="162.582" y2="261.264" stroke="#172B1E" stroke-width="3"/>
<line y1="-1.5" x2="31.1127" y2="-1.5" transform="matrix(0.707106 0.707107 0.707106 -0.707107 227.522 240.203)" stroke="#172B1E" stroke-width="3"/>
<line y1="-1.5" x2="31.1127" y2="-1.5" transform="matrix(0.707106 0.707107 0.707106 -0.707107 163.522 176.203)" stroke="#172B1E" stroke-width="3"/>
<rect x="161.681" y="176.363" width="86.8405" height="85.6813" stroke="#172B1E" stroke-width="2"/>
<rect x="251.643" y="219.203" width="59" height="59" transform="rotate(-45 251.643 219.203)" stroke="#172B1E" stroke-width="3"/>
<path d="M312.862 220.203C312.862 231.525 303.684 240.703 292.362 240.703C281.04 240.703 271.862 231.525 271.862 220.203C271.862 208.881 281.04 199.703 292.362 199.703C303.684 199.703 312.862 208.881 312.862 220.203Z" stroke="#172B1E" stroke-width="3"/>
<line x1="335.423" y1="177.264" x2="313.423" y2="199.264" stroke="#172B1E" stroke-width="3"/>
<line x1="273.423" y1="239.264" x2="251.423" y2="261.264" stroke="#172B1E" stroke-width="3"/>
<line y1="-1.5" x2="31.1127" y2="-1.5" transform="matrix(0.707106 0.707107 0.707106 -0.707107 316.362 240.203)" stroke="#172B1E" stroke-width="3"/>
<line y1="-1.5" x2="31.1127" y2="-1.5" transform="matrix(0.707106 0.707107 0.707106 -0.707107 252.362 176.203)" stroke="#172B1E" stroke-width="3"/>
<rect x="250.522" y="176.363" width="86.8405" height="85.6813" stroke="#172B1E" stroke-width="2"/>
<rect x="340.483" y="219.203" width="59" height="59" transform="rotate(-45 340.483 219.203)" stroke="#172B1E" stroke-width="3"/>
<path d="M401.703 220.203C401.703 231.525 392.524 240.703 381.203 240.703C369.881 240.703 360.703 231.525 360.703 220.203C360.703 208.881 369.881 199.703 381.203 199.703C392.524 199.703 401.703 208.881 401.703 220.203Z" stroke="#172B1E" stroke-width="3"/>
<line x1="424.263" y1="177.264" x2="402.263" y2="199.264" stroke="#172B1E" stroke-width="3"/>
<line x1="362.263" y1="239.264" x2="340.263" y2="261.264" stroke="#172B1E" stroke-width="3"/>
<line y1="-1.5" x2="31.1127" y2="-1.5" transform="matrix(0.707106 0.707107 0.707106 -0.707107 405.203 240.203)" stroke="#172B1E" stroke-width="3"/>
<line y1="-1.5" x2="31.1127" y2="-1.5" transform="matrix(0.707106 0.707107 0.707106 -0.707107 341.203 176.203)" stroke="#172B1E" stroke-width="3"/>
<rect x="339.362" y="176.363" width="86.8405" height="85.6813" stroke="#172B1E" stroke-width="2"/>
<rect x="429.324" y="219.203" width="59" height="59" transform="rotate(-45 429.324 219.203)" stroke="#172B1E" stroke-width="3"/>
<path d="M490.543 220.203C490.543 231.525 481.365 240.703 470.043 240.703C458.721 240.703 449.543 231.525 449.543 220.203C449.543 208.881 458.721 199.703 470.043 199.703C481.365 199.703 490.543 208.881 490.543 220.203Z" stroke="#172B1E" stroke-width="3"/>
<line x1="513.104" y1="177.264" x2="491.104" y2="199.264" stroke="#172B1E" stroke-width="3"/>
<line x1="451.104" y1="239.264" x2="429.104" y2="261.264" stroke="#172B1E" stroke-width="3"/>
<line y1="-1.5" x2="31.1127" y2="-1.5" transform="matrix(0.707106 0.707107 0.707106 -0.707107 494.043 240.203)" stroke="#172B1E" stroke-width="3"/>
<line y1="-1.5" x2="31.1127" y2="-1.5" transform="matrix(0.707106 0.707107 0.707106 -0.707107 430.043 176.203)" stroke="#172B1E" stroke-width="3"/>
<rect x="428.203" y="176.363" width="86.8405" height="85.6813" stroke="#172B1E" stroke-width="2"/>
<rect x="518.165" y="219.203" width="59" height="59" transform="rotate(-45 518.165 219.203)" stroke="#172B1E" stroke-width="3"/>
<path d="M579.384 220.203C579.384 231.525 570.206 240.703 558.884 240.703C547.562 240.703 538.384 231.525 538.384 220.203C538.384 208.881 547.562 199.703 558.884 199.703C570.206 199.703 579.384 208.881 579.384 220.203Z" stroke="#172B1E" stroke-width="3"/>
<line x1="601.944" y1="177.264" x2="579.944" y2="199.264" stroke="#172B1E" stroke-width="3"/>
<line x1="539.944" y1="239.264" x2="517.944" y2="261.264" stroke="#172B1E" stroke-width="3"/>
<line y1="-1.5" x2="31.1127" y2="-1.5" transform="matrix(0.707106 0.707107 0.707106 -0.707107 582.884 240.203)" stroke="#172B1E" stroke-width="3"/>
<line y1="-1.5" x2="31.1127" y2="-1.5" transform="matrix(0.707106 0.707107 0.707106 -0.707107 518.884 176.203)" stroke="#172B1E" stroke-width="3"/>
<rect x="517.043" y="176.363" width="86.8405" height="85.6813" stroke="#172B1E" stroke-width="2"/>
<rect x="607.005" y="219.203" width="59" height="59" transform="rotate(-45 607.005 219.203)" stroke="#172B1E" stroke-width="3"/>
<path d="M668.224 220.203C668.224 231.525 659.046 240.703 647.724 240.703C636.403 240.703 627.224 231.525 627.224 220.203C627.224 208.881 636.403 199.703 647.724 199.703C659.046 199.703 668.224 208.881 668.224 220.203Z" stroke="#172B1E" stroke-width="3"/>
<line x1="690.785" y1="177.264" x2="668.785" y2="199.264" stroke="#172B1E" stroke-width="3"/>
<line x1="628.785" y1="239.264" x2="606.785" y2="261.264" stroke="#172B1E" stroke-width="3"/>
<line y1="-1.5" x2="31.1127" y2="-1.5" transform="matrix(0.707106 0.707107 0.707106 -0.707107 671.724 240.203)" stroke="#172B1E" stroke-width="3"/>
<line y1="-1.5" x2="31.1127" y2="-1.5" transform="matrix(0.707106 0.707107 0.707106 -0.707107 607.724 176.203)" stroke="#172B1E" stroke-width="3"/>
<rect x="605.884" y="176.363" width="86.8405" height="85.6813" stroke="#172B1E" stroke-width="2"/>
<rect x="695.845" y="219.203" width="59" height="59" transform="rotate(-45 695.845 219.203)" stroke="#172B1E" stroke-width="3"/>
<path d="M757.065 220.203C757.065 231.525 747.887 240.703 736.565 240.703C725.243 240.703 716.065 231.525 716.065 220.203C716.065 208.881 725.243 199.703 736.565 199.703C747.887 199.703 757.065 208.881 757.065 220.203Z" stroke="#172B1E" stroke-width="3"/>
<line x1="779.625" y1="177.264" x2="757.625" y2="199.264" stroke="#172B1E" stroke-width="3"/>
<line x1="717.625" y1="239.264" x2="695.625" y2="261.264" stroke="#172B1E" stroke-width="3"/>
<line y1="-1.5" x2="31.1127" y2="-1.5" transform="matrix(0.707106 0.707107 0.707106 -0.707107 760.565 240.203)" stroke="#172B1E" stroke-width="3"/>
<line y1="-1.5" x2="31.1127" y2="-1.5" transform="matrix(0.707106 0.707107 0.707106 -0.707107 696.565 176.203)" stroke="#172B1E" stroke-width="3"/>
<rect x="694.724" y="176.363" width="86.8405" height="85.6813" stroke="#172B1E" stroke-width="2"/>
<rect x="784.686" y="219.203" width="59" height="59" transform="rotate(-45 784.686 219.203)" stroke="#172B1E" stroke-width="3"/>
<path d="M845.905 220.203C845.905 231.525 836.727 240.703 825.405 240.703C814.083 240.703 804.905 231.525 804.905 220.203C804.905 208.881 814.083 199.703 825.405 199.703C836.727 199.703 845.905 208.881 845.905 220.203Z" stroke="#172B1E" stroke-width="3"/>
<line x1="868.466" y1="177.264" x2="846.466" y2="199.264" stroke="#172B1E" stroke-width="3"/>
<line x1="806.466" y1="239.264" x2="784.466" y2="261.264" stroke="#172B1E" stroke-width="3"/>
<line y1="-1.5" x2="31.1127" y2="-1.5" transform="matrix(0.707106 0.707107 0.707106 -0.707107 849.405 240.203)" stroke="#172B1E" stroke-width="3"/>
<line y1="-1.5" x2="31.1127" y2="-1.5" transform="matrix(0.707106 0.707107 0.707106 -0.707107 785.405 176.203)" stroke="#172B1E" stroke-width="3"/>
<rect x="783.565" y="176.363" width="86.8405" height="85.6813" stroke="#172B1E" stroke-width="2"/>
<rect x="873.527" y="219.203" width="59" height="59" transform="rotate(-45 873.527 219.203)" stroke="#172B1E" stroke-width="3"/>
<path d="M934.746 220.203C934.746 231.525 925.568 240.703 914.246 240.703C902.924 240.703 893.746 231.525 893.746 220.203C893.746 208.881 902.924 199.703 914.246 199.703C925.568 199.703 934.746 208.881 934.746 220.203Z" stroke="#172B1E" stroke-width="3"/>
<line x1="957.307" y1="177.264" x2="935.307" y2="199.264" stroke="#172B1E" stroke-width="3"/>
<line x1="895.307" y1="239.264" x2="873.307" y2="261.264" stroke="#172B1E" stroke-width="3"/>
<line y1="-1.5" x2="31.1127" y2="-1.5" transform="matrix(0.707106 0.707107 0.707106 -0.707107 938.246 240.203)" stroke="#172B1E" stroke-width="3"/>
<line y1="-1.5" x2="31.1127" y2="-1.5" transform="matrix(0.707106 0.707107 0.707106 -0.707107 874.246 176.203)" stroke="#172B1E" stroke-width="3"/>
<rect x="872.405" y="176.363" width="86.8405" height="85.6813" stroke="#172B1E" stroke-width="2"/>
<rect x="962.367" y="219.203" width="59" height="59" transform="rotate(-45 962.367 219.203)" stroke="#172B1E" stroke-width="3"/>
<path d="M1023.59 220.203C1023.59 231.525 1014.41 240.703 1003.09 240.703C991.765 240.703 982.586 231.525 982.586 220.203C982.586 208.881 991.765 199.703 1003.09 199.703C1014.41 199.703 1023.59 208.881 1023.59 220.203Z" stroke="#172B1E" stroke-width="3"/>
<line x1="1046.15" y1="177.264" x2="1024.15" y2="199.264" stroke="#172B1E" stroke-width="3"/>
<line x1="984.147" y1="239.264" x2="962.147" y2="261.264" stroke="#172B1E" stroke-width="3"/>
<line y1="-1.5" x2="31.1127" y2="-1.5" transform="matrix(0.707106 0.707107 0.707106 -0.707107 1027.09 240.203)" stroke="#172B1E" stroke-width="3"/>
<line y1="-1.5" x2="31.1127" y2="-1.5" transform="matrix(0.707106 0.707107 0.707106 -0.707107 963.086 176.203)" stroke="#172B1E" stroke-width="3"/>
<rect x="961.246" y="176.363" width="86.8405" height="85.6813" stroke="#172B1E" stroke-width="2"/>
<rect x="1051.21" y="219.203" width="59" height="59" transform="rotate(-45 1051.21 219.203)" stroke="#172B1E" stroke-width="3"/>
<path d="M1112.43 220.203C1112.43 231.525 1103.25 240.703 1091.93 240.703C1080.61 240.703 1071.43 231.525 1071.43 220.203C1071.43 208.881 1080.61 199.703 1091.93 199.703C1103.25 199.703 1112.43 208.881 1112.43 220.203Z" stroke="#172B1E" stroke-width="3"/>
<line x1="1134.99" y1="177.264" x2="1112.99" y2="199.264" stroke="#172B1E" stroke-width="3"/>
<line x1="1072.99" y1="239.264" x2="1050.99" y2="261.264" stroke="#172B1E" stroke-width="3"/>
<line y1="-1.5" x2="31.1127" y2="-1.5" transform="matrix(0.707106 0.707107 0.707106 -0.707107 1115.93 240.203)" stroke="#172B1E" stroke-width="3"/>
<line y1="-1.5" x2="31.1127" y2="-1.5" transform="matrix(0.707106 0.707107 0.707106 -0.707107 1051.93 176.203)" stroke="#172B1E" stroke-width="3"/>
<rect x="1050.09" y="176.363" width="86.8405" height="85.6813" stroke="#172B1E" stroke-width="2"/>
<rect x="1140.05" y="219.203" width="59" height="59" transform="rotate(-45 1140.05 219.203)" stroke="#172B1E" stroke-width="3"/>
<path d="M1201.27 220.203C1201.27 231.525 1192.09 240.703 1180.77 240.703C1169.45 240.703 1160.27 231.525 1160.27 220.203C1160.27 208.881 1169.45 199.703 1180.77 199.703C1192.09 199.703 1201.27 208.881 1201.27 220.203Z" stroke="#172B1E" stroke-width="3"/>
<line x1="1223.83" y1="177.264" x2="1201.83" y2="199.264" stroke="#172B1E" stroke-width="3"/>
<line x1="1161.83" y1="239.264" x2="1139.83" y2="261.264" stroke="#172B1E" stroke-width="3"/>
<line y1="-1.5" x2="31.1127" y2="-1.5" transform="matrix(0.707106 0.707107 0.707106 -0.707107 1204.77 240.203)" stroke="#172B1E" stroke-width="3"/>
<line y1="-1.5" x2="31.1127" y2="-1.5" transform="matrix(0.707106 0.707107 0.707106 -0.707107 1140.77 176.203)" stroke="#172B1E" stroke-width="3"/>
<rect x="1138.93" y="176.363" width="86.8405" height="85.6813" stroke="#172B1E" stroke-width="2"/>
<rect x="1228.89" y="219.203" width="59" height="59" transform="rotate(-45 1228.89 219.203)" stroke="#172B1E" stroke-width="3"/>
<path d="M1290.11 220.203C1290.11 231.525 1280.93 240.703 1269.61 240.703C1258.29 240.703 1249.11 231.525 1249.11 220.203C1249.11 208.881 1258.29 199.703 1269.61 199.703C1280.93 199.703 1290.11 208.881 1290.11 220.203Z" stroke="#172B1E" stroke-width="3"/>
<line x1="1312.67" y1="177.264" x2="1290.67" y2="199.264" stroke="#172B1E" stroke-width="3"/>
<line x1="1250.67" y1="239.264" x2="1228.67" y2="261.264" stroke="#172B1E" stroke-width="3"/>
<line y1="-1.5" x2="31.1127" y2="-1.5" transform="matrix(0.707106 0.707107 0.707106 -0.707107 1293.61 240.203)" stroke="#172B1E" stroke-width="3"/>
<line y1="-1.5" x2="31.1127" y2="-1.5" transform="matrix(0.707106 0.707107 0.707106 -0.707107 1229.61 176.203)" stroke="#172B1E" stroke-width="3"/>
<rect x="1227.77" y="176.363" width="86.8405" height="85.6813" stroke="#172B1E" stroke-width="2"/>
<rect x="1317.73" y="219.203" width="59" height="59" transform="rotate(-45 1317.73 219.203)" stroke="#172B1E" stroke-width="3"/>
<path d="M1378.95 220.203C1378.95 231.525 1369.77 240.703 1358.45 240.703C1347.13 240.703 1337.95 231.525 1337.95 220.203C1337.95 208.881 1347.13 199.703 1358.45 199.703C1369.77 199.703 1378.95 208.881 1378.95 220.203Z" stroke="#172B1E" stroke-width="3"/>
<line x1="1401.51" y1="177.264" x2="1379.51" y2="199.264" stroke="#172B1E" stroke-width="3"/>
<line x1="1339.51" y1="239.264" x2="1317.51" y2="261.264" stroke="#172B1E" stroke-width="3"/>
<line y1="-1.5" x2="31.1127" y2="-1.5" transform="matrix(0.707106 0.707107 0.707106 -0.707107 1382.45 240.203)" stroke="#172B1E" stroke-width="3"/>
<line y1="-1.5" x2="31.1127" y2="-1.5" transform="matrix(0.707106 0.707107 0.707106 -0.707107 1318.45 176.203)" stroke="#172B1E" stroke-width="3"/>
<rect x="1316.61" y="176.363" width="86.8405" height="85.6813" stroke="#172B1E" stroke-width="2"/>
<rect x="1406.57" y="219.203" width="59" height="59" transform="rotate(-45 1406.57 219.203)" stroke="#172B1E" stroke-width="3"/>
<path d="M1467.79 220.203C1467.79 231.525 1458.61 240.703 1447.29 240.703C1435.97 240.703 1426.79 231.525 1426.79 220.203C1426.79 208.881 1435.97 199.703 1447.29 199.703C1458.61 199.703 1467.79 208.881 1467.79 220.203Z" stroke="#172B1E" stroke-width="3"/>
<line x1="1490.35" y1="177.264" x2="1468.35" y2="199.264" stroke="#172B1E" stroke-width="3"/>
<line x1="1428.35" y1="239.264" x2="1406.35" y2="261.264" stroke="#172B1E" stroke-width="3"/>
<line y1="-1.5" x2="31.1127" y2="-1.5" transform="matrix(0.707106 0.707107 0.707106 -0.707107 1471.29 240.203)" stroke="#172B1E" stroke-width="3"/>
<line y1="-1.5" x2="31.1127" y2="-1.5" transform="matrix(0.707106 0.707107 0.707106 -0.707107 1407.29 176.203)" stroke="#172B1E" stroke-width="3"/>
<rect x="1405.45" y="176.363" width="86.8405" height="85.6813" stroke="#172B1E" stroke-width="2"/>
<rect x="1495.41" y="219.203" width="59" height="59" transform="rotate(-45 1495.41 219.203)" stroke="#172B1E" stroke-width="3"/>
<path d="M1556.63 220.203C1556.63 231.525 1547.45 240.703 1536.13 240.703C1524.81 240.703 1515.63 231.525 1515.63 220.203C1515.63 208.881 1524.81 199.703 1536.13 199.703C1547.45 199.703 1556.63 208.881 1556.63 220.203Z" stroke="#172B1E" stroke-width="3"/>
<line x1="1579.19" y1="177.264" x2="1557.19" y2="199.264" stroke="#172B1E" stroke-width="3"/>
<line x1="1517.19" y1="239.264" x2="1495.19" y2="261.264" stroke="#172B1E" stroke-width="3"/>
<line y1="-1.5" x2="31.1127" y2="-1.5" transform="matrix(0.707106 0.707107 0.707106 -0.707107 1560.13 240.203)" stroke="#172B1E" stroke-width="3"/>
<line y1="-1.5" x2="31.1127" y2="-1.5" transform="matrix(0.707106 0.707107 0.707106 -0.707107 1496.13 176.203)" stroke="#172B1E" stroke-width="3"/>
<rect x="1494.29" y="176.363" width="86.8405" height="85.6813" stroke="#172B1E" stroke-width="2"/>
<rect x="1584.25" y="219.203" width="59" height="59" transform="rotate(-45 1584.25 219.203)" stroke="#172B1E" stroke-width="3"/>
<path d="M1645.47 220.203C1645.47 231.525 1636.29 240.703 1624.97 240.703C1613.65 240.703 1604.47 231.525 1604.47 220.203C1604.47 208.881 1613.65 199.703 1624.97 199.703C1636.29 199.703 1645.47 208.881 1645.47 220.203Z" stroke="#172B1E" stroke-width="3"/>
<line x1="1668.03" y1="177.264" x2="1646.03" y2="199.264" stroke="#172B1E" stroke-width="3"/>
<line x1="1606.03" y1="239.264" x2="1584.03" y2="261.264" stroke="#172B1E" stroke-width="3"/>
<line y1="-1.5" x2="31.1127" y2="-1.5" transform="matrix(0.707106 0.707107 0.707106 -0.707107 1648.97 240.203)" stroke="#172B1E" stroke-width="3"/>
<line y1="-1.5" x2="31.1127" y2="-1.5" transform="matrix(0.707106 0.707107 0.707106 -0.707107 1584.97 176.203)" stroke="#172B1E" stroke-width="3"/>
<rect x="1583.13" y="176.363" width="86.8405" height="85.6813" stroke="#172B1E" stroke-width="2"/>
<rect x="1673.09" y="219.203" width="59" height="59" transform="rotate(-45 1673.09 219.203)" stroke="#172B1E" stroke-width="3"/>
<path d="M1734.31 220.203C1734.31 231.525 1725.13 240.703 1713.81 240.703C1702.49 240.703 1693.31 231.525 1693.31 220.203C1693.31 208.881 1702.49 199.703 1713.81 199.703C1725.13 199.703 1734.31 208.881 1734.31 220.203Z" stroke="#172B1E" stroke-width="3"/>
<line x1="1756.87" y1="177.264" x2="1734.87" y2="199.264" stroke="#172B1E" stroke-width="3"/>
<line x1="1694.87" y1="239.264" x2="1672.87" y2="261.264" stroke="#172B1E" stroke-width="3"/>
<line y1="-1.5" x2="31.1127" y2="-1.5" transform="matrix(0.707106 0.707107 0.707106 -0.707107 1737.81 240.203)" stroke="#172B1E" stroke-width="3"/>
<line y1="-1.5" x2="31.1127" y2="-1.5" transform="matrix(0.707106 0.707107 0.707106 -0.707107 1673.81 176.203)" stroke="#172B1E" stroke-width="3"/>
<rect x="1671.97" y="176.363" width="86.8405" height="85.6813" stroke="#172B1E" stroke-width="2"/>
<rect x="1761.93" y="219.203" width="59" height="59" transform="rotate(-45 1761.93 219.203)" stroke="#172B1E" stroke-width="3"/>
<path d="M1823.15 220.203C1823.15 231.525 1813.97 240.703 1802.65 240.703C1791.33 240.703 1782.15 231.525 1782.15 220.203C1782.15 208.881 1791.33 199.703 1802.65 199.703C1813.97 199.703 1823.15 208.881 1823.15 220.203Z" stroke="#172B1E" stroke-width="3"/>
<line x1="1845.71" y1="177.264" x2="1823.71" y2="199.264" stroke="#172B1E" stroke-width="3"/>
<line x1="1783.71" y1="239.264" x2="1761.71" y2="261.264" stroke="#172B1E" stroke-width="3"/>
<line y1="-1.5" x2="31.1127" y2="-1.5" transform="matrix(0.707106 0.707107 0.707106 -0.707107 1826.65 240.203)" stroke="#172B1E" stroke-width="3"/>
<line y1="-1.5" x2="31.1127" y2="-1.5" transform="matrix(0.707106 0.707107 0.707106 -0.707107 1762.65 176.203)" stroke="#172B1E" stroke-width="3"/>
<rect x="1760.81" y="176.363" width="86.8405" height="85.6813" stroke="#172B1E" stroke-width="2"/>
<rect x="1850.77" y="219.203" width="59" height="59" transform="rotate(-45 1850.77 219.203)" stroke="#172B1E" stroke-width="3"/>
<path d="M1911.99 220.203C1911.99 231.525 1902.81 240.703 1891.49 240.703C1880.17 240.703 1870.99 231.525 1870.99 220.203C1870.99 208.881 1880.17 199.703 1891.49 199.703C1902.81 199.703 1911.99 208.881 1911.99 220.203Z" stroke="#172B1E" stroke-width="3"/>
<line x1="1934.55" y1="177.264" x2="1912.55" y2="199.264" stroke="#172B1E" stroke-width="3"/>
<line x1="1872.55" y1="239.264" x2="1850.55" y2="261.264" stroke="#172B1E" stroke-width="3"/>
<line y1="-1.5" x2="31.1127" y2="-1.5" transform="matrix(0.707106 0.707107 0.707106 -0.707107 1915.49 240.203)" stroke="#172B1E" stroke-width="3"/>
<line y1="-1.5" x2="31.1127" y2="-1.5" transform="matrix(0.707106 0.707107 0.707106 -0.707107 1851.49 176.203)" stroke="#172B1E" stroke-width="3"/>
<rect x="1849.65" y="176.363" width="86.8405" height="85.6813" stroke="#172B1E" stroke-width="2"/>
<rect x="-14.8787" y="306.885" width="59" height="59" transform="rotate(-45 -14.8787 306.885)" stroke="#172B1E" stroke-width="3"/>
<path d="M46.3406 307.885C46.3406 319.206 37.1624 328.385 25.8406 328.385C14.5187 328.385 5.34058 319.206 5.34058 307.885C5.34058 296.563 14.5187 287.385 25.8406 287.385C37.1624 287.385 46.3406 296.563 46.3406 307.885Z" stroke="#172B1E" stroke-width="3"/>
<line x1="68.9012" y1="264.945" x2="46.9012" y2="286.945" stroke="#172B1E" stroke-width="3"/>
<line x1="6.90124" y1="326.945" x2="-15.0988" y2="348.945" stroke="#172B1E" stroke-width="3"/>
<line y1="-1.5" x2="31.1127" y2="-1.5" transform="matrix(0.707106 0.707107 0.707106 -0.707107 49.8406 327.885)" stroke="#172B1E" stroke-width="3"/>
<line y1="-1.5" x2="31.1127" y2="-1.5" transform="matrix(0.707106 0.707107 0.707106 -0.707107 -14.1594 263.885)" stroke="#172B1E" stroke-width="3"/>
<rect x="-16" y="264.044" width="86.8405" height="85.6813" stroke="#172B1E" stroke-width="2"/>
<rect x="73.9619" y="306.885" width="59" height="59" transform="rotate(-45 73.9619 306.885)" stroke="#172B1E" stroke-width="3"/>
<path d="M135.182 307.884C135.182 319.206 126.003 328.384 114.682 328.384C103.36 328.384 94.1816 319.206 94.1816 307.884C94.1816 296.562 103.36 287.384 114.682 287.384C126.003 287.384 135.182 296.562 135.182 307.884Z" stroke="#172B1E" stroke-width="3"/>
<line x1="157.742" y1="264.945" x2="135.742" y2="286.945" stroke="#172B1E" stroke-width="3"/>
<line x1="95.7423" y1="326.945" x2="73.7423" y2="348.945" stroke="#172B1E" stroke-width="3"/>
<line y1="-1.5" x2="31.1127" y2="-1.5" transform="matrix(0.707106 0.707107 0.707106 -0.707107 138.682 327.884)" stroke="#172B1E" stroke-width="3"/>
<line y1="-1.5" x2="31.1127" y2="-1.5" transform="matrix(0.707106 0.707107 0.707106 -0.707107 74.6816 263.884)" stroke="#172B1E" stroke-width="3"/>
<rect x="72.8406" y="264.044" width="86.8405" height="85.6813" stroke="#172B1E" stroke-width="2"/>
<rect x="162.802" y="306.885" width="59" height="59" transform="rotate(-45 162.802 306.885)" stroke="#172B1E" stroke-width="3"/>
<path d="M224.022 307.885C224.022 319.206 214.844 328.385 203.522 328.385C192.2 328.385 183.022 319.206 183.022 307.885C183.022 296.563 192.2 287.385 203.522 287.385C214.844 287.385 224.022 296.563 224.022 307.885Z" stroke="#172B1E" stroke-width="3"/>
<line x1="246.582" y1="264.945" x2="224.582" y2="286.945" stroke="#172B1E" stroke-width="3"/>
<line x1="184.582" y1="326.945" x2="162.582" y2="348.945" stroke="#172B1E" stroke-width="3"/>
<line y1="-1.5" x2="31.1127" y2="-1.5" transform="matrix(0.707106 0.707107 0.707106 -0.707107 227.522 327.885)" stroke="#172B1E" stroke-width="3"/>
<line y1="-1.5" x2="31.1127" y2="-1.5" transform="matrix(0.707106 0.707107 0.707106 -0.707107 163.522 263.885)" stroke="#172B1E" stroke-width="3"/>
<rect x="161.681" y="264.044" width="86.8405" height="85.6813" stroke="#172B1E" stroke-width="2"/>
<rect x="251.643" y="306.885" width="59" height="59" transform="rotate(-45 251.643 306.885)" stroke="#172B1E" stroke-width="3"/>
<path d="M312.862 307.885C312.862 319.206 303.684 328.385 292.362 328.385C281.04 328.385 271.862 319.206 271.862 307.885C271.862 296.563 281.04 287.385 292.362 287.385C303.684 287.385 312.862 296.563 312.862 307.885Z" stroke="#172B1E" stroke-width="3"/>
<line x1="335.423" y1="264.945" x2="313.423" y2="286.945" stroke="#172B1E" stroke-width="3"/>
<line x1="273.423" y1="326.945" x2="251.423" y2="348.945" stroke="#172B1E" stroke-width="3"/>
<line y1="-1.5" x2="31.1127" y2="-1.5" transform="matrix(0.707106 0.707107 0.707106 -0.707107 316.362 327.885)" stroke="#172B1E" stroke-width="3"/>
<line y1="-1.5" x2="31.1127" y2="-1.5" transform="matrix(0.707106 0.707107 0.707106 -0.707107 252.362 263.885)" stroke="#172B1E" stroke-width="3"/>
<rect x="250.522" y="264.044" width="86.8405" height="85.6813" stroke="#172B1E" stroke-width="2"/>
<rect x="340.483" y="306.885" width="59" height="59" transform="rotate(-45 340.483 306.885)" stroke="#172B1E" stroke-width="3"/>
<path d="M401.703 307.885C401.703 319.206 392.524 328.385 381.203 328.385C369.881 328.385 360.703 319.206 360.703 307.885C360.703 296.563 369.881 287.385 381.203 287.385C392.524 287.385 401.703 296.563 401.703 307.885Z" stroke="#172B1E" stroke-width="3"/>
<line x1="424.263" y1="264.945" x2="402.263" y2="286.945" stroke="#172B1E" stroke-width="3"/>
<line x1="362.263" y1="326.945" x2="340.263" y2="348.945" stroke="#172B1E" stroke-width="3"/>
<line y1="-1.5" x2="31.1127" y2="-1.5" transform="matrix(0.707106 0.707107 0.707106 -0.707107 405.203 327.885)" stroke="#172B1E" stroke-width="3"/>
<line y1="-1.5" x2="31.1127" y2="-1.5" transform="matrix(0.707106 0.707107 0.707106 -0.707107 341.203 263.885)" stroke="#172B1E" stroke-width="3"/>
<rect x="339.362" y="264.044" width="86.8405" height="85.6813" stroke="#172B1E" stroke-width="2"/>
<rect x="429.324" y="306.885" width="59" height="59" transform="rotate(-45 429.324 306.885)" stroke="#172B1E" stroke-width="3"/>
<path d="M490.543 307.885C490.543 319.206 481.365 328.385 470.043 328.385C458.721 328.385 449.543 319.206 449.543 307.885C449.543 296.563 458.721 287.385 470.043 287.385C481.365 287.385 490.543 296.563 490.543 307.885Z" stroke="#172B1E" stroke-width="3"/>
<line x1="513.104" y1="264.945" x2="491.104" y2="286.945" stroke="#172B1E" stroke-width="3"/>
<line x1="451.104" y1="326.945" x2="429.104" y2="348.945" stroke="#172B1E" stroke-width="3"/>
<line y1="-1.5" x2="31.1127" y2="-1.5" transform="matrix(0.707106 0.707107 0.707106 -0.707107 494.043 327.885)" stroke="#172B1E" stroke-width="3"/>
<line y1="-1.5" x2="31.1127" y2="-1.5" transform="matrix(0.707106 0.707107 0.707106 -0.707107 430.043 263.885)" stroke="#172B1E" stroke-width="3"/>
<rect x="428.203" y="264.044" width="86.8405" height="85.6813" stroke="#172B1E" stroke-width="2"/>
<rect x="518.165" y="306.885" width="59" height="59" transform="rotate(-45 518.165 306.885)" stroke="#172B1E" stroke-width="3"/>
<path d="M579.384 307.885C579.384 319.206 570.206 328.385 558.884 328.385C547.562 328.385 538.384 319.206 538.384 307.885C538.384 296.563 547.562 287.385 558.884 287.385C570.206 287.385 579.384 296.563 579.384 307.885Z" stroke="#172B1E" stroke-width="3"/>
<line x1="601.944" y1="264.945" x2="579.944" y2="286.945" stroke="#172B1E" stroke-width="3"/>
<line x1="539.944" y1="326.945" x2="517.944" y2="348.945" stroke="#172B1E" stroke-width="3"/>
<line y1="-1.5" x2="31.1127" y2="-1.5" transform="matrix(0.707106 0.707107 0.707106 -0.707107 582.884 327.885)" stroke="#172B1E" stroke-width="3"/>
<line y1="-1.5" x2="31.1127" y2="-1.5" transform="matrix(0.707106 0.707107 0.707106 -0.707107 518.884 263.885)" stroke="#172B1E" stroke-width="3"/>
<rect x="517.043" y="264.044" width="86.8405" height="85.6813" stroke="#172B1E" stroke-width="2"/>
<rect x="607.005" y="306.885" width="59" height="59" transform="rotate(-45 607.005 306.885)" stroke="#172B1E" stroke-width="3"/>
<path d="M668.224 307.885C668.224 319.206 659.046 328.385 647.724 328.385C636.403 328.385 627.224 319.206 627.224 307.885C627.224 296.563 636.403 287.385 647.724 287.385C659.046 287.385 668.224 296.563 668.224 307.885Z" stroke="#172B1E" stroke-width="3"/>
<line x1="690.785" y1="264.945" x2="668.785" y2="286.945" stroke="#172B1E" stroke-width="3"/>
<line x1="628.785" y1="326.945" x2="606.785" y2="348.945" stroke="#172B1E" stroke-width="3"/>
<line y1="-1.5" x2="31.1127" y2="-1.5" transform="matrix(0.707106 0.707107 0.707106 -0.707107 671.724 327.885)" stroke="#172B1E" stroke-width="3"/>
<line y1="-1.5" x2="31.1127" y2="-1.5" transform="matrix(0.707106 0.707107 0.707106 -0.707107 607.724 263.885)" stroke="#172B1E" stroke-width="3"/>
<rect x="605.884" y="264.044" width="86.8405" height="85.6813" stroke="#172B1E" stroke-width="2"/>
<rect x="695.845" y="306.885" width="59" height="59" transform="rotate(-45 695.845 306.885)" stroke="#172B1E" stroke-width="3"/>
<path d="M757.065 307.885C757.065 319.206 747.887 328.385 736.565 328.385C725.243 328.385 716.065 319.206 716.065 307.885C716.065 296.563 725.243 287.385 736.565 287.385C747.887 287.385 757.065 296.563 757.065 307.885Z" stroke="#172B1E" stroke-width="3"/>
<line x1="779.625" y1="264.945" x2="757.625" y2="286.945" stroke="#172B1E" stroke-width="3"/>
<line x1="717.625" y1="326.945" x2="695.625" y2="348.945" stroke="#172B1E" stroke-width="3"/>
<line y1="-1.5" x2="31.1127" y2="-1.5" transform="matrix(0.707106 0.707107 0.707106 -0.707107 760.565 327.885)" stroke="#172B1E" stroke-width="3"/>
<line y1="-1.5" x2="31.1127" y2="-1.5" transform="matrix(0.707106 0.707107 0.707106 -0.707107 696.565 263.885)" stroke="#172B1E" stroke-width="3"/>
<rect x="694.724" y="264.044" width="86.8405" height="85.6813" stroke="#172B1E" stroke-width="2"/>
<rect x="784.686" y="306.885" width="59" height="59" transform="rotate(-45 784.686 306.885)" stroke="#172B1E" stroke-width="3"/>
<path d="M845.905 307.885C845.905 319.206 836.727 328.385 825.405 328.385C814.083 328.385 804.905 319.206 804.905 307.885C804.905 296.563 814.083 287.385 825.405 287.385C836.727 287.385 845.905 296.563 845.905 307.885Z" stroke="#172B1E" stroke-width="3"/>
<line x1="868.466" y1="264.945" x2="846.466" y2="286.945" stroke="#172B1E" stroke-width="3"/>
<line x1="806.466" y1="326.945" x2="784.466" y2="348.945" stroke="#172B1E" stroke-width="3"/>
<line y1="-1.5" x2="31.1127" y2="-1.5" transform="matrix(0.707106 0.707107 0.707106 -0.707107 849.405 327.885)" stroke="#172B1E" stroke-width="3"/>
<line y1="-1.5" x2="31.1127" y2="-1.5" transform="matrix(0.707106 0.707107 0.707106 -0.707107 785.405 263.885)" stroke="#172B1E" stroke-width="3"/>
<rect x="783.565" y="264.044" width="86.8405" height="85.6813" stroke="#172B1E" stroke-width="2"/>
<rect x="873.527" y="306.885" width="59" height="59" transform="rotate(-45 873.527 306.885)" stroke="#172B1E" stroke-width="3"/>
<path d="M934.746 307.885C934.746 319.206 925.568 328.385 914.246 328.385C902.924 328.385 893.746 319.206 893.746 307.885C893.746 296.563 902.924 287.385 914.246 287.385C925.568 287.385 934.746 296.563 934.746 307.885Z" stroke="#172B1E" stroke-width="3"/>
<line x1="957.307" y1="264.945" x2="935.307" y2="286.945" stroke="#172B1E" stroke-width="3"/>
<line x1="895.307" y1="326.945" x2="873.307" y2="348.945" stroke="#172B1E" stroke-width="3"/>
<line y1="-1.5" x2="31.1127" y2="-1.5" transform="matrix(0.707106 0.707107 0.707106 -0.707107 938.246 327.885)" stroke="#172B1E" stroke-width="3"/>
<line y1="-1.5" x2="31.1127" y2="-1.5" transform="matrix(0.707106 0.707107 0.707106 -0.707107 874.246 263.885)" stroke="#172B1E" stroke-width="3"/>
<rect x="872.405" y="264.044" width="86.8405" height="85.6813" stroke="#172B1E" stroke-width="2"/>
<rect x="962.367" y="306.885" width="59" height="59" transform="rotate(-45 962.367 306.885)" stroke="#172B1E" stroke-width="3"/>
<path d="M1023.59 307.885C1023.59 319.206 1014.41 328.385 1003.09 328.385C991.765 328.385 982.586 319.206 982.586 307.885C982.586 296.563 991.765 287.385 1003.09 287.385C1014.41 287.385 1023.59 296.563 1023.59 307.885Z" stroke="#172B1E" stroke-width="3"/>
<line x1="1046.15" y1="264.945" x2="1024.15" y2="286.945" stroke="#172B1E" stroke-width="3"/>
<line x1="984.147" y1="326.945" x2="962.147" y2="348.945" stroke="#172B1E" stroke-width="3"/>
<line y1="-1.5" x2="31.1127" y2="-1.5" transform="matrix(0.707106 0.707107 0.707106 -0.707107 1027.09 327.885)" stroke="#172B1E" stroke-width="3"/>
<line y1="-1.5" x2="31.1127" y2="-1.5" transform="matrix(0.707106 0.707107 0.707106 -0.707107 963.086 263.885)" stroke="#172B1E" stroke-width="3"/>
<rect x="961.246" y="264.044" width="86.8405" height="85.6813" stroke="#172B1E" stroke-width="2"/>
<rect x="1051.21" y="306.885" width="59" height="59" transform="rotate(-45 1051.21 306.885)" stroke="#172B1E" stroke-width="3"/>
<path d="M1112.43 307.885C1112.43 319.206 1103.25 328.385 1091.93 328.385C1080.61 328.385 1071.43 319.206 1071.43 307.885C1071.43 296.563 1080.61 287.385 1091.93 287.385C1103.25 287.385 1112.43 296.563 1112.43 307.885Z" stroke="#172B1E" stroke-width="3"/>
<line x1="1134.99" y1="264.945" x2="1112.99" y2="286.945" stroke="#172B1E" stroke-width="3"/>
<line x1="1072.99" y1="326.945" x2="1050.99" y2="348.945" stroke="#172B1E" stroke-width="3"/>
<line y1="-1.5" x2="31.1127" y2="-1.5" transform="matrix(0.707106 0.707107 0.707106 -0.707107 1115.93 327.885)" stroke="#172B1E" stroke-width="3"/>
<line y1="-1.5" x2="31.1127" y2="-1.5" transform="matrix(0.707106 0.707107 0.707106 -0.707107 1051.93 263.885)" stroke="#172B1E" stroke-width="3"/>
<rect x="1050.09" y="264.044" width="86.8405" height="85.6813" stroke="#172B1E" stroke-width="2"/>
<rect x="1140.05" y="306.885" width="59" height="59" transform="rotate(-45 1140.05 306.885)" stroke="#172B1E" stroke-width="3"/>
<path d="M1201.27 307.885C1201.27 319.206 1192.09 328.385 1180.77 328.385C1169.45 328.385 1160.27 319.206 1160.27 307.885C1160.27 296.563 1169.45 287.385 1180.77 287.385C1192.09 287.385 1201.27 296.563 1201.27 307.885Z" stroke="#172B1E" stroke-width="3"/>
<line x1="1223.83" y1="264.945" x2="1201.83" y2="286.945" stroke="#172B1E" stroke-width="3"/>
<line x1="1161.83" y1="326.945" x2="1139.83" y2="348.945" stroke="#172B1E" stroke-width="3"/>
<line y1="-1.5" x2="31.1127" y2="-1.5" transform="matrix(0.707106 0.707107 0.707106 -0.707107 1204.77 327.885)" stroke="#172B1E" stroke-width="3"/>
<line y1="-1.5" x2="31.1127" y2="-1.5" transform="matrix(0.707106 0.707107 0.707106 -0.707107 1140.77 263.885)" stroke="#172B1E" stroke-width="3"/>
<rect x="1138.93" y="264.044" width="86.8405" height="85.6813" stroke="#172B1E" stroke-width="2"/>
<rect x="1228.89" y="306.885" width="59" height="59" transform="rotate(-45 1228.89 306.885)" stroke="#172B1E" stroke-width="3"/>
<path d="M1290.11 307.885C1290.11 319.206 1280.93 328.385 1269.61 328.385C1258.29 328.385 1249.11 319.206 1249.11 307.885C1249.11 296.563 1258.29 287.385 1269.61 287.385C1280.93 287.385 1290.11 296.563 1290.11 307.885Z" stroke="#172B1E" stroke-width="3"/>
<line x1="1312.67" y1="264.945" x2="1290.67" y2="286.945" stroke="#172B1E" stroke-width="3"/>
<line x1="1250.67" y1="326.945" x2="1228.67" y2="348.945" stroke="#172B1E" stroke-width="3"/>
<line y1="-1.5" x2="31.1127" y2="-1.5" transform="matrix(0.707106 0.707107 0.707106 -0.707107 1293.61 327.885)" stroke="#172B1E" stroke-width="3"/>
<line y1="-1.5" x2="31.1127" y2="-1.5" transform="matrix(0.707106 0.707107 0.707106 -0.707107 1229.61 263.885)" stroke="#172B1E" stroke-width="3"/>
<rect x="1227.77" y="264.044" width="86.8405" height="85.6813" stroke="#172B1E" stroke-width="2"/>
<rect x="1317.73" y="306.885" width="59" height="59" transform="rotate(-45 1317.73 306.885)" stroke="#172B1E" stroke-width="3"/>
<path d="M1378.95 307.885C1378.95 319.206 1369.77 328.385 1358.45 328.385C1347.13 328.385 1337.95 319.206 1337.95 307.885C1337.95 296.563 1347.13 287.385 1358.45 287.385C1369.77 287.385 1378.95 296.563 1378.95 307.885Z" stroke="#172B1E" stroke-width="3"/>
<line x1="1401.51" y1="264.945" x2="1379.51" y2="286.945" stroke="#172B1E" stroke-width="3"/>
<line x1="1339.51" y1="326.945" x2="1317.51" y2="348.945" stroke="#172B1E" stroke-width="3"/>
<line y1="-1.5" x2="31.1127" y2="-1.5" transform="matrix(0.707106 0.707107 0.707106 -0.707107 1382.45 327.885)" stroke="#172B1E" stroke-width="3"/>
<line y1="-1.5" x2="31.1127" y2="-1.5" transform="matrix(0.707106 0.707107 0.707106 -0.707107 1318.45 263.885)" stroke="#172B1E" stroke-width="3"/>
<rect x="1316.61" y="264.044" width="86.8405" height="85.6813" stroke="#172B1E" stroke-width="2"/>
<rect x="1406.57" y="306.885" width="59" height="59" transform="rotate(-45 1406.57 306.885)" stroke="#172B1E" stroke-width="3"/>
<path d="M1467.79 307.885C1467.79 319.206 1458.61 328.385 1447.29 328.385C1435.97 328.385 1426.79 319.206 1426.79 307.885C1426.79 296.563 1435.97 287.385 1447.29 287.385C1458.61 287.385 1467.79 296.563 1467.79 307.885Z" stroke="#172B1E" stroke-width="3"/>
<line x1="1490.35" y1="264.945" x2="1468.35" y2="286.945" stroke="#172B1E" stroke-width="3"/>
<line x1="1428.35" y1="326.945" x2="1406.35" y2="348.945" stroke="#172B1E" stroke-width="3"/>
<line y1="-1.5" x2="31.1127" y2="-1.5" transform="matrix(0.707106 0.707107 0.707106 -0.707107 1471.29 327.885)" stroke="#172B1E" stroke-width="3"/>
<line y1="-1.5" x2="31.1127" y2="-1.5" transform="matrix(0.707106 0.707107 0.707106 -0.707107 1407.29 263.885)" stroke="#172B1E" stroke-width="3"/>
<rect x="1405.45" y="264.044" width="86.8405" height="85.6813" stroke="#172B1E" stroke-width="2"/>
<rect x="1495.41" y="306.885" width="59" height="59" transform="rotate(-45 1495.41 306.885)" stroke="#172B1E" stroke-width="3"/>
<path d="M1556.63 307.885C1556.63 319.206 1547.45 328.385 1536.13 328.385C1524.81 328.385 1515.63 319.206 1515.63 307.885C1515.63 296.563 1524.81 287.385 1536.13 287.385C1547.45 287.385 1556.63 296.563 1556.63 307.885Z" stroke="#172B1E" stroke-width="3"/>
<line x1="1579.19" y1="264.945" x2="1557.19" y2="286.945" stroke="#172B1E" stroke-width="3"/>
<line x1="1517.19" y1="326.945" x2="1495.19" y2="348.945" stroke="#172B1E" stroke-width="3"/>
<line y1="-1.5" x2="31.1127" y2="-1.5" transform="matrix(0.707106 0.707107 0.707106 -0.707107 1560.13 327.885)" stroke="#172B1E" stroke-width="3"/>
<line y1="-1.5" x2="31.1127" y2="-1.5" transform="matrix(0.707106 0.707107 0.707106 -0.707107 1496.13 263.885)" stroke="#172B1E" stroke-width="3"/>
<rect x="1494.29" y="264.044" width="86.8405" height="85.6813" stroke="#172B1E" stroke-width="2"/>
<rect x="1584.25" y="306.885" width="59" height="59" transform="rotate(-45 1584.25 306.885)" stroke="#172B1E" stroke-width="3"/>
<path d="M1645.47 307.885C1645.47 319.206 1636.29 328.385 1624.97 328.385C1613.65 328.385 1604.47 319.206 1604.47 307.885C1604.47 296.563 1613.65 287.385 1624.97 287.385C1636.29 287.385 1645.47 296.563 1645.47 307.885Z" stroke="#172B1E" stroke-width="3"/>
<line x1="1668.03" y1="264.945" x2="1646.03" y2="286.945" stroke="#172B1E" stroke-width="3"/>
<line x1="1606.03" y1="326.945" x2="1584.03" y2="348.945" stroke="#172B1E" stroke-width="3"/>
<line y1="-1.5" x2="31.1127" y2="-1.5" transform="matrix(0.707106 0.707107 0.707106 -0.707107 1648.97 327.885)" stroke="#172B1E" stroke-width="3"/>
<line y1="-1.5" x2="31.1127" y2="-1.5" transform="matrix(0.707106 0.707107 0.707106 -0.707107 1584.97 263.885)" stroke="#172B1E" stroke-width="3"/>
<rect x="1583.13" y="264.044" width="86.8405" height="85.6813" stroke="#172B1E" stroke-width="2"/>
<rect x="1673.09" y="306.885" width="59" height="59" transform="rotate(-45 1673.09 306.885)" stroke="#172B1E" stroke-width="3"/>
<path d="M1734.31 307.885C1734.31 319.206 1725.13 328.385 1713.81 328.385C1702.49 328.385 1693.31 319.206 1693.31 307.885C1693.31 296.563 1702.49 287.385 1713.81 287.385C1725.13 287.385 1734.31 296.563 1734.31 307.885Z" stroke="#172B1E" stroke-width="3"/>
<line x1="1756.87" y1="264.945" x2="1734.87" y2="286.945" stroke="#172B1E" stroke-width="3"/>
<line x1="1694.87" y1="326.945" x2="1672.87" y2="348.945" stroke="#172B1E" stroke-width="3"/>
<line y1="-1.5" x2="31.1127" y2="-1.5" transform="matrix(0.707106 0.707107 0.707106 -0.707107 1737.81 327.885)" stroke="#172B1E" stroke-width="3"/>
<line y1="-1.5" x2="31.1127" y2="-1.5" transform="matrix(0.707106 0.707107 0.707106 -0.707107 1673.81 263.885)" stroke="#172B1E" stroke-width="3"/>
<rect x="1671.97" y="264.044" width="86.8405" height="85.6813" stroke="#172B1E" stroke-width="2"/>
<rect x="1761.93" y="306.885" width="59" height="59" transform="rotate(-45 1761.93 306.885)" stroke="#172B1E" stroke-width="3"/>
<path d="M1823.15 307.885C1823.15 319.206 1813.97 328.385 1802.65 328.385C1791.33 328.385 1782.15 319.206 1782.15 307.885C1782.15 296.563 1791.33 287.385 1802.65 287.385C1813.97 287.385 1823.15 296.563 1823.15 307.885Z" stroke="#172B1E" stroke-width="3"/>
<line x1="1845.71" y1="264.945" x2="1823.71" y2="286.945" stroke="#172B1E" stroke-width="3"/>
<line x1="1783.71" y1="326.945" x2="1761.71" y2="348.945" stroke="#172B1E" stroke-width="3"/>
<line y1="-1.5" x2="31.1127" y2="-1.5" transform="matrix(0.707106 0.707107 0.707106 -0.707107 1826.65 327.885)" stroke="#172B1E" stroke-width="3"/>
<line y1="-1.5" x2="31.1127" y2="-1.5" transform="matrix(0.707106 0.707107 0.707106 -0.707107 1762.65 263.885)" stroke="#172B1E" stroke-width="3"/>
<rect x="1760.81" y="264.044" width="86.8405" height="85.6813" stroke="#172B1E" stroke-width="2"/>
<rect x="1850.77" y="306.885" width="59" height="59" transform="rotate(-45 1850.77 306.885)" stroke="#172B1E" stroke-width="3"/>
<path d="M1911.99 307.885C1911.99 319.206 1902.81 328.385 1891.49 328.385C1880.17 328.385 1870.99 319.206 1870.99 307.885C1870.99 296.563 1880.17 287.385 1891.49 287.385C1902.81 287.385 1911.99 296.563 1911.99 307.885Z" stroke="#172B1E" stroke-width="3"/>
<line x1="1934.55" y1="264.945" x2="1912.55" y2="286.945" stroke="#172B1E" stroke-width="3"/>
<line x1="1872.55" y1="326.945" x2="1850.55" y2="348.945" stroke="#172B1E" stroke-width="3"/>
<line y1="-1.5" x2="31.1127" y2="-1.5" transform="matrix(0.707106 0.707107 0.707106 -0.707107 1915.49 327.885)" stroke="#172B1E" stroke-width="3"/>
<line y1="-1.5" x2="31.1127" y2="-1.5" transform="matrix(0.707106 0.707107 0.707106 -0.707107 1851.49 263.885)" stroke="#172B1E" stroke-width="3"/>
<rect x="1849.65" y="264.044" width="86.8405" height="85.6813" stroke="#172B1E" stroke-width="2"/>
</g>
</svg>
