<svg width="76" height="76" viewBox="0 0 76 76" fill="none" xmlns="http://www.w3.org/2000/svg">
<path fill-rule="evenodd" clip-rule="evenodd" d="M37 0.165039H38H46H47V1.16504V6.16504V7.16504H46H39V13.665H49H50V14.665V20.665H65V19.165V18.165H66H75H76V19.165V44.165V45.165H75H74.5H66H49H27H10H1H0V44.165V19.165V18.165H1H10H11V19.165V20.665H26V14.665V13.665H27H37V6.16504V1.16504V0.165039ZM37 17.665V15.665H33.5V17.665H31.5V15.665H28V21.665V30.665V43.165H32.5V33.665C32.5 32.9815 32.4917 32.2974 32.4837 31.632L32.4837 31.6313L32.4836 31.6307C32.4732 30.7698 32.4632 29.9402 32.4719 29.1832C32.4878 27.8129 32.5633 26.5191 32.8244 25.3582C33.0881 24.1854 33.5491 23.1103 34.3601 22.2099C35.1722 21.3081 36.2737 20.65 37.7059 20.2093L37.9963 20.1199L38.2873 20.2072C39.6788 20.6246 40.7565 21.2735 41.5582 22.1706C42.3561 23.0635 42.8222 24.1373 43.0984 25.311C43.5428 27.1998 43.5259 29.5411 43.5075 32.0884C43.5038 32.6061 43.5 33.1324 43.5 33.665V43.165H48V30.665V21.665V15.665H44.5V17.665H42.5V15.665H39V17.665H37ZM41.5 34.665V43.165H34.5V34.665H41.5ZM39 5.16504H45V2.16504H39V5.16504ZM29.5 19.165H31.5V22.165H29.5V19.165ZM44.5 19.165H46.5V22.165H44.5V19.165ZM34.4954 32.665H41.5029C41.5041 32.4356 41.5055 32.2102 41.5069 31.9885V31.9884C41.523 29.442 41.5359 27.4026 41.1516 25.7691C40.9278 24.8178 40.5814 24.079 40.0668 23.5032C39.6019 22.983 38.9516 22.5419 38.0028 22.2161C36.9977 22.565 36.3208 23.0214 35.8462 23.5483C35.3259 24.126 34.9869 24.8572 34.7756 25.7969C34.5617 26.7485 34.4872 27.8734 34.4718 29.2063C34.4631 29.9617 34.4727 30.7343 34.483 31.5599L34.4831 31.5612C34.4875 31.9183 34.4921 32.2853 34.4954 32.665ZM4.5 25.665V23.165H6.5V25.665H4.5ZM69.5 25.665V23.165H71.5V25.665H69.5ZM13 27.665V25.165H15V27.665H13ZM17.5 27.665V25.165H19.5V27.665H17.5ZM22 27.665V25.165H24V27.665H22ZM52 27.665V25.165H54V27.665H52ZM56.5 27.665V25.165H58.5V27.665H56.5ZM61 27.665V25.165H63V27.665H61ZM17.2433 37.584C17.0552 37.793 17 38.0443 17 38.165V43.165H20V38.165C20 38.0443 19.9448 37.793 19.7567 37.584C19.5974 37.407 19.258 37.165 18.5 37.165C17.742 37.165 17.4026 37.407 17.2433 37.584ZM11 43.165H15V38.165C15 37.6191 15.1948 36.8704 15.7567 36.2461C16.3474 35.5897 17.258 35.165 18.5 35.165C19.742 35.165 20.6526 35.5897 21.2433 36.2461C21.8052 36.8704 22 37.6191 22 38.165V43.165H26V31.665H11V43.165ZM56.2433 37.584C56.0552 37.793 56 38.0443 56 38.165V43.165H59V38.165C59 38.0443 58.9448 37.793 58.7567 37.584C58.5974 37.407 58.258 37.165 57.5 37.165C56.742 37.165 56.4026 37.407 56.2433 37.584ZM50 43.165H54V38.165C54 37.6191 54.1948 36.8704 54.7567 36.2461C55.3474 35.5897 56.258 35.165 57.5 35.165C58.742 35.165 59.6526 35.5897 60.2433 36.2461C60.8052 36.8704 61 37.6191 61 38.165V43.165H65V31.665H50V43.165ZM26 22.665H11V29.665H26V22.665ZM50 29.665H65V22.665H50V29.665ZM67 43.165H74V20.165H67V21.665V30.665V43.165ZM9 43.165V30.665V21.665V20.165H2V43.165H9ZM37 30.665V24.665H39V30.665H37ZM4.5 38.165V29.165H6.5V38.165H4.5ZM71.5 29.165H69.5V38.165H71.5V29.165ZM37 36.665V41.165H39V36.665H37Z" fill="#1E1E1E"/>
<path d="M12.405 53.571H11.929C11.845 52.815 11.5604 52.143 11.075 51.555C10.5337 50.9017 9.89905 50.575 9.17105 50.575C8.90038 50.575 8.64838 50.617 8.41505 50.701C8.19105 50.785 7.94838 50.9204 7.68705 51.107C7.16438 51.499 6.80505 52.0964 6.60905 52.899C6.46905 53.4684 6.39905 54.1917 6.39905 55.069C6.39905 55.909 6.44105 56.5904 6.52505 57.113C6.65571 57.9344 6.89371 58.569 7.23905 59.017C7.66838 59.577 8.26105 59.857 9.01705 59.857C9.73571 59.857 10.3844 59.507 10.963 58.807C11.411 58.2657 11.7704 57.5797 12.041 56.749H12.433V59.549C11.9664 59.801 11.3364 60.011 10.543 60.179C9.74971 60.347 9.04505 60.431 8.42905 60.431C6.86105 60.431 5.60105 59.9597 4.64905 59.017C3.70638 58.065 3.23505 56.8004 3.23505 55.223C3.23505 53.655 3.73438 52.4044 4.73305 51.471C5.74105 50.5284 7.03838 50.057 8.62505 50.057C9.21305 50.057 9.85238 50.141 10.543 50.309C11.0937 50.4397 11.7144 50.6357 12.405 50.897V53.571ZM12.7874 59.759H13.7954C13.9541 59.4697 14.1268 59.0964 14.3134 58.639C14.4721 58.2657 14.6261 57.8784 14.7754 57.477L17.5474 50.155H18.2614L21.9154 59.773H23.0074V60.179H17.3234V59.773H18.7654L17.7854 57.071H15.4474C15.1581 57.7897 14.9854 58.2284 14.9294 58.387C14.7334 58.9097 14.5934 59.367 14.5094 59.759H15.8534V60.151H12.7874V59.759ZM17.6734 56.665C17.5521 56.2357 17.3981 55.7504 17.2114 55.209C17.0901 54.873 16.9128 54.397 16.6794 53.781L15.5734 56.665H17.6734ZM24.1944 56.791C24.3624 57.659 24.7077 58.3777 25.2304 58.947C25.8184 59.5817 26.5324 59.899 27.3724 59.899C27.895 59.899 28.3244 59.7917 28.6604 59.577C29.0524 59.325 29.2484 58.9517 29.2484 58.457C29.2484 57.9157 28.7864 57.421 27.8624 56.973C26.2384 56.189 25.3844 55.769 25.3004 55.713C24.367 55.069 23.9004 54.243 23.9004 53.235C23.9004 52.227 24.2224 51.4384 24.8664 50.869C25.5104 50.2904 26.3457 50.001 27.3724 50.001C27.8764 50.001 28.3664 50.0617 28.8424 50.183C29.3277 50.295 29.785 50.4677 30.2144 50.701L30.3684 53.011L29.9064 53.025L29.8644 52.815C29.6684 52.171 29.3464 51.639 28.8984 51.219C28.3944 50.7524 27.825 50.519 27.1904 50.519C26.7797 50.519 26.425 50.603 26.1264 50.771C25.753 50.9857 25.5664 51.289 25.5664 51.681C25.5664 52.2317 26.033 52.7264 26.9664 53.165C28.6464 53.949 29.519 54.3644 29.5844 54.411C30.527 55.0457 30.9984 55.8764 30.9984 56.903C30.9984 57.967 30.6484 58.8164 29.9484 59.451C29.2484 60.0857 28.357 60.403 27.2744 60.403C26.565 60.403 25.9864 60.347 25.5384 60.235C25.0997 60.1324 24.535 59.9224 23.8444 59.605L23.7324 56.791H24.1944ZM31.5807 50.295H41.3387V53.655H40.8767C40.8767 52.815 40.6107 52.1244 40.0787 51.583C39.5467 51.0417 38.856 50.771 38.0067 50.771H37.8667V59.745H39.0847V60.151H33.7647V59.759H35.0107V50.673C33.9653 50.8224 33.242 51.0884 32.8407 51.471C32.4393 51.8537 32.15 52.563 31.9727 53.599H31.5807V50.295ZM41.819 59.801H43.037V50.743H41.875V50.281H50.737V53.403H50.317C49.925 51.6484 48.8097 50.771 46.971 50.771H45.921V54.971C46.6397 54.8964 47.125 54.719 47.377 54.439C47.573 54.215 47.7504 53.7204 47.909 52.955H48.343V57.519H47.895C47.895 56.8377 47.7317 56.315 47.405 55.951C47.0784 55.587 46.5837 55.405 45.921 55.405V59.773H46.537C47.769 59.773 48.6837 59.591 49.281 59.227C49.9904 58.7977 50.4664 58.0137 50.709 56.875H51.143V60.221H41.819V59.801ZM51.5662 59.759H52.7702V50.729H51.5942V50.309H56.8862V50.701H55.6542V59.703H56.2142C57.3622 59.703 58.2816 59.493 58.9722 59.073C59.7936 58.569 60.2602 57.7804 60.3722 56.707H60.7782V60.193H51.5662V59.759ZM72.3594 55.223C72.3594 56.791 71.8601 58.0557 70.8614 59.017C69.8627 59.969 68.5747 60.445 66.9974 60.445C65.3921 60.445 64.1041 59.9924 63.1334 59.087C62.1254 58.1537 61.6214 56.889 61.6214 55.293C61.6214 53.7157 62.1207 52.4464 63.1194 51.485C64.1181 50.5237 65.4154 50.043 67.0114 50.043C68.5981 50.043 69.8861 50.5097 70.8754 51.443C71.8647 52.3764 72.3594 53.6364 72.3594 55.223ZM67.0394 59.997C67.9914 59.997 68.6307 59.3904 68.9574 58.177C69.1347 57.5144 69.2234 56.5204 69.2234 55.195C69.2234 53.8884 69.1394 52.9177 68.9714 52.283C68.6541 51.0884 68.0287 50.491 67.0954 50.491C66.1527 50.491 65.4947 51.0277 65.1214 52.101C64.8787 52.7917 64.7574 53.7204 64.7574 54.887V55.881C64.7574 57.057 64.8647 57.939 65.0794 58.527C65.4341 59.507 66.0874 59.997 67.0394 59.997ZM1.79813 63.295H11.5561V66.655H11.0941C11.0941 65.815 10.8281 65.1244 10.2961 64.583C9.76413 64.0417 9.07347 63.771 8.22413 63.771H8.08413V72.745H9.30213V73.151H3.98213V72.759H5.22813V63.673C4.1828 63.8224 3.45947 64.0884 3.05813 64.471C2.6568 64.8537 2.36747 65.563 2.19013 66.599H1.79813V63.295ZM11.7005 72.759H12.7085C12.8672 72.4697 13.0398 72.0964 13.2265 71.639C13.3852 71.2657 13.5392 70.8784 13.6885 70.477L16.4605 63.155H17.1745L20.8285 72.773H21.9205V73.179H16.2365V72.773H17.6785L16.6985 70.071H14.3605C14.0712 70.7897 13.8985 71.2284 13.8425 71.387C13.6465 71.9097 13.5065 72.367 13.4225 72.759H14.7665V73.151H11.7005V72.759ZM16.5865 69.665C16.4652 69.2357 16.3112 68.7504 16.1245 68.209C16.0032 67.873 15.8258 67.397 15.5925 66.781L14.4865 69.665H16.5865ZM22.0014 72.773H23.2054V63.659H22.0154V63.281H27.4754C28.4648 63.281 29.2161 63.3837 29.7294 63.589C30.5321 63.9064 30.9334 64.4804 30.9334 65.311C30.9334 66.039 30.6908 66.6224 30.2054 67.061C29.8414 67.397 29.2628 67.7004 28.4694 67.971C29.8134 68.1017 30.6674 68.5824 31.0314 69.413C31.0874 69.5437 31.1948 70.2857 31.3534 71.639C31.4468 72.4044 31.8388 72.787 32.5294 72.787V73.179H30.6394C29.4541 73.179 28.7494 72.745 28.5254 71.877C28.4414 71.0744 28.3621 70.267 28.2874 69.455C28.0914 68.587 27.4334 68.153 26.3134 68.153L26.0614 68.167V72.773H27.2794V73.165H22.0014V72.773ZM26.2434 67.761C26.9248 67.761 27.3961 67.5884 27.6574 67.243C27.8814 66.9444 27.9934 66.4357 27.9934 65.717C27.9934 64.9984 27.9188 64.5084 27.7694 64.247C27.5548 63.8737 27.1161 63.687 26.4534 63.687H26.0474V67.761H26.2434ZM32.6813 63.295H42.4393V66.655H41.9773C41.9773 65.815 41.7113 65.1244 41.1793 64.583C40.6473 64.0417 39.9566 63.771 39.1073 63.771H38.9673V72.745H40.1853V73.151H34.8653V72.759H36.1113V63.673C35.0659 63.8224 34.3426 64.0884 33.9413 64.471C33.5399 64.8537 33.2506 65.563 33.0733 66.599H32.6813V63.295ZM42.7516 63.281H48.0016V63.673H46.8256V70.169C46.8256 70.981 46.975 71.6017 47.2736 72.031C47.6376 72.5537 48.207 72.815 48.9816 72.815C49.719 72.815 50.3116 72.6377 50.7596 72.283C51.2636 71.891 51.5156 71.3357 51.5156 70.617V63.673H50.4096V63.309H53.2656V63.673H52.0616V69.511C52.0616 70.883 51.8143 71.8677 51.3196 72.465C50.7783 73.1184 49.8356 73.445 48.4916 73.445L48.2256 73.431C46.5176 73.431 45.3603 73.1604 44.7536 72.619C44.2216 72.1524 43.9556 71.4477 43.9556 70.505V63.659H42.7516V63.281ZM53.5014 72.773H54.7334V63.715H53.5714V63.309H62.1254V66.417L61.6774 66.431L61.6494 66.221C61.3974 65.1757 60.9121 64.4804 60.1934 64.135C59.6708 63.883 58.8121 63.757 57.6174 63.757V67.985H57.7854C58.3454 67.985 58.7841 67.7844 59.1014 67.383C59.3814 67.019 59.5494 66.543 59.6054 65.955H60.0254V70.505H59.5914C59.5168 69.7677 59.3534 69.2497 59.1014 68.951C58.8028 68.5964 58.3081 68.419 57.6174 68.419V72.787H58.7934V73.221H53.5014V72.773ZM73.4463 68.223C73.4463 69.791 72.947 71.0557 71.9483 72.017C70.9496 72.969 69.6616 73.445 68.0843 73.445C66.479 73.445 65.191 72.9924 64.2203 72.087C63.2123 71.1537 62.7083 69.889 62.7083 68.293C62.7083 66.7157 63.2076 65.4464 64.2063 64.485C65.205 63.5237 66.5023 63.043 68.0983 63.043C69.685 63.043 70.973 63.5097 71.9623 64.443C72.9516 65.3764 73.4463 66.6364 73.4463 68.223ZM68.1263 72.997C69.0783 72.997 69.7176 72.3904 70.0443 71.177C70.2216 70.5144 70.3103 69.5204 70.3103 68.195C70.3103 66.8884 70.2263 65.9177 70.0583 65.283C69.741 64.0884 69.1156 63.491 68.1823 63.491C67.2396 63.491 66.5816 64.0277 66.2083 65.101C65.9656 65.7917 65.8443 66.7204 65.8443 67.887V68.881C65.8443 70.057 65.9516 70.939 66.1663 71.527C66.521 72.507 67.1743 72.997 68.1263 72.997Z" fill="#1E1E1E"/>
</svg>
