<svg width="80" height="76" viewBox="0 0 80 76" fill="none" xmlns="http://www.w3.org/2000/svg">
<path fill-rule="evenodd" clip-rule="evenodd" d="M39 0.0673828H40H48H49V1.06738V6.06738V7.06738H48H41V13.5674H51H52V14.5674V20.5674H67V19.0674V18.0674H68H77H78V19.0674V44.0674V45.0674H77H76.5H68H51H29H12H3H2V44.0674V19.0674V18.0674H3H12H13V19.0674V20.5674H28V14.5674V13.5674H29H39V6.06738V1.06738V0.0673828ZM39 17.5674V15.5674H35.5V17.5674H33.5V15.5674H30V21.5674V30.5674V43.0674H34.5V33.5674C34.5 32.8838 34.4917 32.1998 34.4837 31.5343L34.4837 31.5336L34.4836 31.533C34.4732 30.6722 34.4632 29.8425 34.4719 29.0855C34.4878 27.7153 34.5633 26.4214 34.8244 25.2605C35.0881 24.0877 35.5491 23.0126 36.3601 22.1122C37.1722 21.2104 38.2737 20.5523 39.7059 20.1116L39.9963 20.0222L40.2873 20.1096C41.6788 20.527 42.7565 21.1759 43.5582 22.0729C44.3561 22.9659 44.8222 24.0396 45.0984 25.2133C45.5428 27.1021 45.5259 29.4434 45.5075 31.9907C45.5038 32.5085 45.5 33.0347 45.5 33.5674V43.0674H50V30.5674V21.5674V15.5674H46.5V17.5674H44.5V15.5674H41V17.5674H39ZM43.5 34.5674V43.0674H36.5V34.5674H43.5ZM41 5.06738H47V2.06738H41V5.06738ZM31.5 19.0674H33.5V22.0674H31.5V19.0674ZM46.5 19.0674H48.5V22.0674H46.5V19.0674ZM36.4954 32.5674H43.5029C43.5041 32.338 43.5055 32.1125 43.5069 31.8909V31.8908C43.523 29.3443 43.5359 27.3049 43.1516 25.6714C42.9278 24.7202 42.5814 23.9814 42.0668 23.4056C41.6019 22.8853 40.9516 22.4442 40.0028 22.1184C38.9977 22.4674 38.3208 22.9237 37.8462 23.4507C37.3259 24.0284 36.9869 24.7595 36.7756 25.6993C36.5617 26.6509 36.4872 27.7758 36.4718 29.1086C36.4631 29.864 36.4727 30.6366 36.483 31.4623L36.4831 31.4636C36.4875 31.8206 36.4921 32.1876 36.4954 32.5674ZM6.5 25.5674V23.0674H8.5V25.5674H6.5ZM71.5 25.5674V23.0674H73.5V25.5674H71.5ZM15 27.5674V25.0674H17V27.5674H15ZM19.5 27.5674V25.0674H21.5V27.5674H19.5ZM24 27.5674V25.0674H26V27.5674H24ZM54 27.5674V25.0674H56V27.5674H54ZM58.5 27.5674V25.0674H60.5V27.5674H58.5ZM63 27.5674V25.0674H65V27.5674H63ZM19.2433 37.4863C19.0552 37.6953 19 37.9467 19 38.0674V43.0674H22V38.0674C22 37.9467 21.9448 37.6953 21.7567 37.4863C21.5974 37.3094 21.258 37.0674 20.5 37.0674C19.742 37.0674 19.4026 37.3094 19.2433 37.4863ZM13 43.0674H17V38.0674C17 37.5214 17.1948 36.7728 17.7567 36.1484C18.3474 35.492 19.258 35.0674 20.5 35.0674C21.742 35.0674 22.6526 35.492 23.2433 36.1484C23.8052 36.7728 24 37.5214 24 38.0674V43.0674H28V31.5674H13V43.0674ZM58.2433 37.4863C58.0552 37.6953 58 37.9467 58 38.0674V43.0674H61V38.0674C61 37.9467 60.9448 37.6953 60.7567 37.4863C60.5974 37.3094 60.258 37.0674 59.5 37.0674C58.742 37.0674 58.4026 37.3094 58.2433 37.4863ZM52 43.0674H56V38.0674C56 37.5214 56.1948 36.7728 56.7567 36.1484C57.3474 35.492 58.258 35.0674 59.5 35.0674C60.742 35.0674 61.6526 35.492 62.2433 36.1484C62.8052 36.7728 63 37.5214 63 38.0674V43.0674H67V31.5674H52V43.0674ZM28 22.5674H13V29.5674H28V22.5674ZM52 29.5674H67V22.5674H52V29.5674ZM69 43.0674H76V20.0674H69V21.5674V30.5674V43.0674ZM11 43.0674V30.5674V21.5674V20.0674H4V43.0674H11ZM39 30.5674V24.5674H41V30.5674H39ZM6.5 38.0674V29.0674H8.5V38.0674H6.5ZM73.5 29.0674H71.5V38.0674H73.5V29.0674ZM39 36.5674V41.0674H41V36.5674H39Z" fill="#BF090A"/>
<path d="M9.52446 53.4734H9.04846C8.96446 52.7174 8.6798 52.0454 8.19446 51.4574C7.65313 50.804 7.01846 50.4774 6.29046 50.4774C6.0198 50.4774 5.7678 50.5194 5.53446 50.6034C5.31046 50.6874 5.0678 50.8227 4.80646 51.0094C4.2838 51.4014 3.92446 51.9987 3.72846 52.8014C3.58846 53.3707 3.51846 54.094 3.51846 54.9714C3.51846 55.8114 3.56046 56.4927 3.64446 57.0154C3.77513 57.8367 4.01313 58.4714 4.35846 58.9194C4.7878 59.4794 5.38046 59.7594 6.13646 59.7594C6.85513 59.7594 7.5038 59.4094 8.08246 58.7094C8.53046 58.168 8.8898 57.482 9.16046 56.6514H9.55246V59.4514C9.0858 59.7034 8.4558 59.9134 7.66246 60.0814C6.86913 60.2494 6.16446 60.3334 5.54846 60.3334C3.98046 60.3334 2.72046 59.862 1.76846 58.9194C0.825795 57.9674 0.354462 56.7027 0.354462 55.1254C0.354462 53.5574 0.853795 52.3067 1.85246 51.3734C2.86046 50.4307 4.1578 49.9594 5.74446 49.9594C6.33246 49.9594 6.9718 50.0434 7.66246 50.2114C8.21313 50.342 8.8338 50.538 9.52446 50.7994V53.4734ZM9.90684 59.6614H10.9148C11.0735 59.372 11.2462 58.9987 11.4328 58.5414C11.5915 58.168 11.7455 57.7807 11.8948 57.3794L14.6668 50.0574H15.3808L19.0348 59.6754H20.1268V60.0814H14.4428V59.6754H15.8848L14.9048 56.9734H12.5668C12.2775 57.692 12.1048 58.1307 12.0488 58.2894C11.8528 58.812 11.7128 59.2694 11.6288 59.6614H12.9728V60.0534H9.90684V59.6614ZM14.7928 56.5674C14.6715 56.138 14.5175 55.6527 14.3308 55.1114C14.2095 54.7754 14.0322 54.2994 13.7988 53.6834L12.6928 56.5674H14.7928ZM21.3138 56.6934C21.4818 57.5614 21.8271 58.28 22.3498 58.8494C22.9378 59.484 23.6518 59.8014 24.4918 59.8014C25.0144 59.8014 25.4438 59.694 25.7798 59.4794C26.1718 59.2274 26.3678 58.854 26.3678 58.3594C26.3678 57.818 25.9058 57.3234 24.9818 56.8754C23.3578 56.0914 22.5038 55.6714 22.4198 55.6154C21.4864 54.9714 21.0198 54.1454 21.0198 53.1374C21.0198 52.1294 21.3418 51.3407 21.9858 50.7714C22.6298 50.1927 23.4651 49.9034 24.4918 49.9034C24.9958 49.9034 25.4858 49.964 25.9618 50.0854C26.4471 50.1974 26.9044 50.37 27.3338 50.6034L27.4878 52.9134L27.0258 52.9274L26.9838 52.7174C26.7878 52.0734 26.4658 51.5414 26.0178 51.1214C25.5138 50.6547 24.9444 50.4214 24.3098 50.4214C23.8991 50.4214 23.5444 50.5054 23.2458 50.6734C22.8724 50.888 22.6858 51.1914 22.6858 51.5834C22.6858 52.134 23.1524 52.6287 24.0858 53.0674C25.7658 53.8514 26.6384 54.2667 26.7038 54.3134C27.6464 54.948 28.1178 55.7787 28.1178 56.8054C28.1178 57.8694 27.7678 58.7187 27.0678 59.3534C26.3678 59.988 25.4764 60.3054 24.3938 60.3054C23.6844 60.3054 23.1058 60.2494 22.6578 60.1374C22.2191 60.0347 21.6544 59.8247 20.9638 59.5074L20.8518 56.6934H21.3138ZM28.7001 50.1974H38.4581V53.5574H37.9961C37.9961 52.7174 37.7301 52.0267 37.1981 51.4854C36.6661 50.944 35.9754 50.6734 35.1261 50.6734H34.9861V59.6474H36.2041V60.0534H30.8841V59.6614H32.1301V50.5754C31.0848 50.7247 30.3614 50.9907 29.9601 51.3734C29.5588 51.756 29.2694 52.4654 29.0921 53.5014H28.7001V50.1974ZM38.9385 59.7034H40.1565V50.6454H38.9945V50.1834H47.8565V53.3054H47.4365C47.0445 51.5507 45.9291 50.6734 44.0905 50.6734H43.0405V54.8734C43.7591 54.7987 44.2445 54.6214 44.4965 54.3414C44.6925 54.1174 44.8698 53.6227 45.0285 52.8574H45.4625V57.4214H45.0145C45.0145 56.74 44.8511 56.2174 44.5245 55.8534C44.1978 55.4894 43.7031 55.3074 43.0405 55.3074V59.6754H43.6565C44.8885 59.6754 45.8031 59.4934 46.4005 59.1294C47.1098 58.7 47.5858 57.916 47.8285 56.7774H48.2625V60.1234H38.9385V59.7034ZM48.6856 59.6614H49.8896V50.6314H48.7136V50.2114H54.0056V50.6034H52.7736V59.6054H53.3336C54.4816 59.6054 55.401 59.3954 56.0916 58.9754C56.913 58.4714 57.3796 57.6827 57.4916 56.6094H57.8976V60.0954H48.6856V59.6614ZM58.4468 59.6614H59.6508V50.6314H58.4748V50.2114H63.7668V50.6034H62.5348V59.6054H63.0948C64.2428 59.6054 65.1621 59.3954 65.8528 58.9754C66.6741 58.4714 67.1408 57.6827 67.2528 56.6094H67.6588V60.0954H58.4468V59.6614ZM79.24 55.1254C79.24 56.6934 78.7406 57.958 77.742 58.9194C76.7433 59.8714 75.4553 60.3474 73.878 60.3474C72.2726 60.3474 70.9846 59.8947 70.014 58.9894C69.006 58.056 68.502 56.7914 68.502 55.1954C68.502 53.618 69.0013 52.3487 70 51.3874C70.9986 50.426 72.296 49.9454 73.892 49.9454C75.4786 49.9454 76.7666 50.412 77.756 51.3454C78.7453 52.2787 79.24 53.5387 79.24 55.1254ZM73.92 59.8994C74.872 59.8994 75.5113 59.2927 75.838 58.0794C76.0153 57.4167 76.104 56.4227 76.104 55.0974C76.104 53.7907 76.02 52.82 75.852 52.1854C75.5346 50.9907 74.9093 50.3934 73.976 50.3934C73.0333 50.3934 72.3753 50.93 72.002 52.0034C71.7593 52.694 71.638 53.6227 71.638 54.7894V55.7834C71.638 56.9594 71.7453 57.8414 71.96 58.4294C72.3146 59.4094 72.968 59.8994 73.92 59.8994ZM3.79813 63.1974H13.5561V66.5574H13.0941C13.0941 65.7174 12.8281 65.0267 12.2961 64.4854C11.7641 63.944 11.0735 63.6734 10.2241 63.6734H10.0841V72.6474H11.3021V73.0534H5.98213V72.6614H7.22813V63.5754C6.1828 63.7247 5.45947 63.9907 5.05813 64.3734C4.6568 64.756 4.36747 65.4654 4.19013 66.5014H3.79813V63.1974ZM13.7005 72.6614H14.7085C14.8672 72.372 15.0398 71.9987 15.2265 71.5414C15.3852 71.168 15.5392 70.7807 15.6885 70.3794L18.4605 63.0574H19.1745L22.8285 72.6754H23.9205V73.0814H18.2365V72.6754H19.6785L18.6985 69.9734H16.3605C16.0712 70.692 15.8985 71.1307 15.8425 71.2894C15.6465 71.812 15.5065 72.2694 15.4225 72.6614H16.7665V73.0534H13.7005V72.6614ZM18.5865 69.5674C18.4652 69.138 18.3112 68.6527 18.1245 68.1114C18.0032 67.7754 17.8258 67.2994 17.5925 66.6834L16.4865 69.5674H18.5865ZM24.0014 72.6754H25.2054V63.5614H24.0154V63.1834H29.4754C30.4648 63.1834 31.2161 63.286 31.7294 63.4914C32.5321 63.8087 32.9334 64.3827 32.9334 65.2134C32.9334 65.9414 32.6908 66.5247 32.2054 66.9634C31.8414 67.2994 31.2628 67.6027 30.4694 67.8734C31.8134 68.004 32.6674 68.4847 33.0314 69.3154C33.0874 69.446 33.1948 70.188 33.3534 71.5414C33.4468 72.3067 33.8388 72.6894 34.5294 72.6894V73.0814H32.6394C31.4541 73.0814 30.7494 72.6474 30.5254 71.7794C30.4414 70.9767 30.3621 70.1694 30.2874 69.3574C30.0914 68.4894 29.4334 68.0554 28.3134 68.0554L28.0614 68.0694V72.6754H29.2794V73.0674H24.0014V72.6754ZM28.2434 67.6634C28.9248 67.6634 29.3961 67.4907 29.6574 67.1454C29.8814 66.8467 29.9934 66.338 29.9934 65.6194C29.9934 64.9007 29.9188 64.4107 29.7694 64.1494C29.5548 63.776 29.1161 63.5894 28.4534 63.5894H28.0474V67.6634H28.2434ZM34.6813 63.1974H44.4393V66.5574H43.9773C43.9773 65.7174 43.7113 65.0267 43.1793 64.4854C42.6473 63.944 41.9566 63.6734 41.1073 63.6734H40.9673V72.6474H42.1853V73.0534H36.8653V72.6614H38.1113V63.5754C37.0659 63.7247 36.3426 63.9907 35.9413 64.3734C35.5399 64.756 35.2506 65.4654 35.0733 66.5014H34.6813V63.1974ZM44.7516 63.1834H50.0016V63.5754H48.8256V70.0714C48.8256 70.8834 48.975 71.504 49.2736 71.9334C49.6376 72.456 50.207 72.7174 50.9816 72.7174C51.719 72.7174 52.3116 72.54 52.7596 72.1854C53.2636 71.7934 53.5156 71.238 53.5156 70.5194V63.5754H52.4096V63.2114H55.2656V63.5754H54.0616V69.4134C54.0616 70.7854 53.8143 71.77 53.3196 72.3674C52.7783 73.0207 51.8356 73.3474 50.4916 73.3474L50.2256 73.3334C48.5176 73.3334 47.3603 73.0627 46.7536 72.5214C46.2216 72.0547 45.9556 71.35 45.9556 70.4074V63.5614H44.7516V63.1834ZM55.5014 72.6754H56.7334V63.6174H55.5714V63.2114H64.1254V66.3194L63.6774 66.3334L63.6494 66.1234C63.3974 65.078 62.9121 64.3827 62.1934 64.0374C61.6708 63.7854 60.8121 63.6594 59.6174 63.6594V67.8874H59.7854C60.3454 67.8874 60.7841 67.6867 61.1014 67.2854C61.3814 66.9214 61.5494 66.4454 61.6054 65.8574H62.0254V70.4074H61.5914C61.5168 69.67 61.3534 69.152 61.1014 68.8534C60.8028 68.4987 60.3081 68.3214 59.6174 68.3214V72.6894H60.7934V73.1234H55.5014V72.6754ZM75.4463 68.1254C75.4463 69.6934 74.947 70.958 73.9483 71.9194C72.9496 72.8714 71.6616 73.3474 70.0843 73.3474C68.479 73.3474 67.191 72.8947 66.2203 71.9894C65.2123 71.056 64.7083 69.7914 64.7083 68.1954C64.7083 66.618 65.2076 65.3487 66.2063 64.3874C67.205 63.426 68.5023 62.9454 70.0983 62.9454C71.685 62.9454 72.973 63.412 73.9623 64.3454C74.9516 65.2787 75.4463 66.5387 75.4463 68.1254ZM70.1263 72.8994C71.0783 72.8994 71.7176 72.2927 72.0443 71.0794C72.2216 70.4167 72.3103 69.4227 72.3103 68.0974C72.3103 66.7907 72.2263 65.82 72.0583 65.1854C71.741 63.9907 71.1156 63.3934 70.1823 63.3934C69.2396 63.3934 68.5816 63.93 68.2083 65.0034C67.9656 65.694 67.8443 66.6227 67.8443 67.7894V68.7834C67.8443 69.9594 67.9516 70.8414 68.1663 71.4294C68.521 72.4094 69.1743 72.8994 70.1263 72.8994Z" fill="#BF090A"/>
</svg>
